<?xml version="1.0" encoding="utf-8" standalone="no"?>
<!DOCTYPE svg PUBLIC "-//W3C//DTD SVG 1.1//EN"
  "http://www.w3.org/Graphics/SVG/1.1/DTD/svg11.dtd">
<!-- Created with matplotlib (http://matplotlib.org/) -->
<svg height="236pt" version="1.1" viewBox="0 0 409 236" width="409pt" xmlns="http://www.w3.org/2000/svg" xmlns:xlink="http://www.w3.org/1999/xlink">
 <defs>
  <style type="text/css">
*{stroke-linecap:butt;stroke-linejoin:round;}
  </style>
 </defs>
 <g id="figure_1">
  <g id="patch_1">
   <path d="M 0 236 
L 409 236 
L 409 0 
L 0 0 
z
" style="fill:#ffffff;"/>
  </g>
  <g id="axes_1">
   <g id="patch_2">
    <path d="M 52.790625 44.710417 
L 394.7 44.710417 
L 394.7 14.3 
L 52.790625 14.3 
z
" style="fill:#ffffff;"/>
   </g>
   <g id="patch_3">
    <path clip-path="url(#pdc2b0bd80a)" d="M 133.94267 44.710417 
L 169.863727 44.710417 
L 169.863727 21.317788 
L 133.94267 21.317788 
z
" style="fill:#1f77b4;opacity:0.4;"/>
   </g>
   <g id="patch_4">
    <path clip-path="url(#pdc2b0bd80a)" d="M 169.863727 44.710417 
L 205.784784 44.710417 
L 205.784784 25.773527 
L 169.863727 25.773527 
z
" style="fill:#1f77b4;opacity:0.4;"/>
   </g>
   <g id="patch_5">
    <path clip-path="url(#pdc2b0bd80a)" d="M 205.784784 44.710417 
L 241.705841 44.710417 
L 241.705841 23.545658 
L 205.784784 23.545658 
z
" style="fill:#1f77b4;opacity:0.4;"/>
   </g>
   <g id="patch_6">
    <path clip-path="url(#pdc2b0bd80a)" d="M 241.705841 44.710417 
L 277.626898 44.710417 
L 277.626898 25.773527 
L 241.705841 25.773527 
z
" style="fill:#1f77b4;opacity:0.4;"/>
   </g>
   <g id="patch_7">
    <path clip-path="url(#pdc2b0bd80a)" d="M 277.626898 44.710417 
L 313.547955 44.710417 
L 313.547955 15.748115 
L 277.626898 15.748115 
z
" style="fill:#1f77b4;opacity:0.4;"/>
   </g>
   <g id="patch_8">
    <path clip-path="url(#pdc2b0bd80a)" d="M 133.94267 44.710417 
L 169.863727 44.710417 
L 169.863727 21.317788 
L 133.94267 21.317788 
z
" style="fill:#ff7f0e;opacity:0.4;"/>
   </g>
   <g id="patch_9">
    <path clip-path="url(#pdc2b0bd80a)" d="M 169.863727 44.710417 
L 205.784784 44.710417 
L 205.784784 25.773527 
L 169.863727 25.773527 
z
" style="fill:#ff7f0e;opacity:0.4;"/>
   </g>
   <g id="patch_10">
    <path clip-path="url(#pdc2b0bd80a)" d="M 205.784784 44.710417 
L 241.705841 44.710417 
L 241.705841 23.545658 
L 205.784784 23.545658 
z
" style="fill:#ff7f0e;opacity:0.4;"/>
   </g>
   <g id="patch_11">
    <path clip-path="url(#pdc2b0bd80a)" d="M 241.705841 44.710417 
L 277.626898 44.710417 
L 277.626898 25.773527 
L 241.705841 25.773527 
z
" style="fill:#ff7f0e;opacity:0.4;"/>
   </g>
   <g id="patch_12">
    <path clip-path="url(#pdc2b0bd80a)" d="M 277.626898 44.710417 
L 313.547955 44.710417 
L 313.547955 15.748115 
L 277.626898 15.748115 
z
" style="fill:#ff7f0e;opacity:0.4;"/>
   </g>
   <g id="matplotlib.axis_1">
    <g id="xtick_1">
     <g id="line2d_1">
      <defs>
       <path d="M 0 0 
L 0 3.5 
" id="m8d9a616353" style="stroke:#000000;stroke-width:0.8;"/>
      </defs>
      <g>
       <use style="stroke:#000000;stroke-width:0.8;" x="72.658434" xlink:href="#m8d9a616353" y="44.710417"/>
      </g>
     </g>
     <g id="text_1">
      <!-- 0 -->
      <defs>
       <path d="M 31.78125 66.40625 
Q 24.171875 66.40625 20.328125 58.90625 
Q 16.5 51.421875 16.5 36.375 
Q 16.5 21.390625 20.328125 13.890625 
Q 24.171875 6.390625 31.78125 6.390625 
Q 39.453125 6.390625 43.28125 13.890625 
Q 47.125 21.390625 47.125 36.375 
Q 47.125 51.421875 43.28125 58.90625 
Q 39.453125 66.40625 31.78125 66.40625 
z
M 31.78125 74.21875 
Q 44.046875 74.21875 50.515625 64.515625 
Q 56.984375 54.828125 56.984375 36.375 
Q 56.984375 17.96875 50.515625 8.265625 
Q 44.046875 -1.421875 31.78125 -1.421875 
Q 19.53125 -1.421875 13.0625 8.265625 
Q 6.59375 17.96875 6.59375 36.375 
Q 6.59375 54.828125 13.0625 64.515625 
Q 19.53125 74.21875 31.78125 74.21875 
z
" id="DejaVuSans-30"/>
      </defs>
      <g transform="translate(69.477184 59.308854)scale(0.1 -0.1)">
       <use xlink:href="#DejaVuSans-30"/>
      </g>
     </g>
    </g>
    <g id="xtick_2">
     <g id="line2d_2">
      <g>
       <use style="stroke:#000000;stroke-width:0.8;" x="133.335895" xlink:href="#m8d9a616353" y="44.710417"/>
      </g>
     </g>
     <g id="text_2">
      <!-- 100 -->
      <defs>
       <path d="M 12.40625 8.296875 
L 28.515625 8.296875 
L 28.515625 63.921875 
L 10.984375 60.40625 
L 10.984375 69.390625 
L 28.421875 72.90625 
L 38.28125 72.90625 
L 38.28125 8.296875 
L 54.390625 8.296875 
L 54.390625 0 
L 12.40625 0 
z
" id="DejaVuSans-31"/>
      </defs>
      <g transform="translate(123.792145 59.308854)scale(0.1 -0.1)">
       <use xlink:href="#DejaVuSans-31"/>
       <use x="63.623047" xlink:href="#DejaVuSans-30"/>
       <use x="127.246094" xlink:href="#DejaVuSans-30"/>
      </g>
     </g>
    </g>
    <g id="xtick_3">
     <g id="line2d_3">
      <g>
       <use style="stroke:#000000;stroke-width:0.8;" x="194.013356" xlink:href="#m8d9a616353" y="44.710417"/>
      </g>
     </g>
     <g id="text_3">
      <!-- 200 -->
      <defs>
       <path d="M 19.1875 8.296875 
L 53.609375 8.296875 
L 53.609375 0 
L 7.328125 0 
L 7.328125 8.296875 
Q 12.9375 14.109375 22.625 23.890625 
Q 32.328125 33.6875 34.8125 36.53125 
Q 39.546875 41.84375 41.421875 45.53125 
Q 43.3125 49.21875 43.3125 52.78125 
Q 43.3125 58.59375 39.234375 62.25 
Q 35.15625 65.921875 28.609375 65.921875 
Q 23.96875 65.921875 18.8125 64.3125 
Q 13.671875 62.703125 7.8125 59.421875 
L 7.8125 69.390625 
Q 13.765625 71.78125 18.9375 73 
Q 24.125 74.21875 28.421875 74.21875 
Q 39.75 74.21875 46.484375 68.546875 
Q 53.21875 62.890625 53.21875 53.421875 
Q 53.21875 48.921875 51.53125 44.890625 
Q 49.859375 40.875 45.40625 35.40625 
Q 44.1875 33.984375 37.640625 27.21875 
Q 31.109375 20.453125 19.1875 8.296875 
z
" id="DejaVuSans-32"/>
      </defs>
      <g transform="translate(184.469606 59.308854)scale(0.1 -0.1)">
       <use xlink:href="#DejaVuSans-32"/>
       <use x="63.623047" xlink:href="#DejaVuSans-30"/>
       <use x="127.246094" xlink:href="#DejaVuSans-30"/>
      </g>
     </g>
    </g>
    <g id="xtick_4">
     <g id="line2d_4">
      <g>
       <use style="stroke:#000000;stroke-width:0.8;" x="254.690818" xlink:href="#m8d9a616353" y="44.710417"/>
      </g>
     </g>
     <g id="text_4">
      <!-- 300 -->
      <defs>
       <path d="M 40.578125 39.3125 
Q 47.65625 37.796875 51.625 33 
Q 55.609375 28.21875 55.609375 21.1875 
Q 55.609375 10.40625 48.1875 4.484375 
Q 40.765625 -1.421875 27.09375 -1.421875 
Q 22.515625 -1.421875 17.65625 -0.515625 
Q 12.796875 0.390625 7.625 2.203125 
L 7.625 11.71875 
Q 11.71875 9.328125 16.59375 8.109375 
Q 21.484375 6.890625 26.8125 6.890625 
Q 36.078125 6.890625 40.9375 10.546875 
Q 45.796875 14.203125 45.796875 21.1875 
Q 45.796875 27.640625 41.28125 31.265625 
Q 36.765625 34.90625 28.71875 34.90625 
L 20.21875 34.90625 
L 20.21875 43.015625 
L 29.109375 43.015625 
Q 36.375 43.015625 40.234375 45.921875 
Q 44.09375 48.828125 44.09375 54.296875 
Q 44.09375 59.90625 40.109375 62.90625 
Q 36.140625 65.921875 28.71875 65.921875 
Q 24.65625 65.921875 20.015625 65.03125 
Q 15.375 64.15625 9.8125 62.3125 
L 9.8125 71.09375 
Q 15.4375 72.65625 20.34375 73.4375 
Q 25.25 74.21875 29.59375 74.21875 
Q 40.828125 74.21875 47.359375 69.109375 
Q 53.90625 64.015625 53.90625 55.328125 
Q 53.90625 49.265625 50.4375 45.09375 
Q 46.96875 40.921875 40.578125 39.3125 
z
" id="DejaVuSans-33"/>
      </defs>
      <g transform="translate(245.147068 59.308854)scale(0.1 -0.1)">
       <use xlink:href="#DejaVuSans-33"/>
       <use x="63.623047" xlink:href="#DejaVuSans-30"/>
       <use x="127.246094" xlink:href="#DejaVuSans-30"/>
      </g>
     </g>
    </g>
    <g id="xtick_5">
     <g id="line2d_5">
      <g>
       <use style="stroke:#000000;stroke-width:0.8;" x="315.368279" xlink:href="#m8d9a616353" y="44.710417"/>
      </g>
     </g>
     <g id="text_5">
      <!-- 400 -->
      <defs>
       <path d="M 37.796875 64.3125 
L 12.890625 25.390625 
L 37.796875 25.390625 
z
M 35.203125 72.90625 
L 47.609375 72.90625 
L 47.609375 25.390625 
L 58.015625 25.390625 
L 58.015625 17.1875 
L 47.609375 17.1875 
L 47.609375 0 
L 37.796875 0 
L 37.796875 17.1875 
L 4.890625 17.1875 
L 4.890625 26.703125 
z
" id="DejaVuSans-34"/>
      </defs>
      <g transform="translate(305.824529 59.308854)scale(0.1 -0.1)">
       <use xlink:href="#DejaVuSans-34"/>
       <use x="63.623047" xlink:href="#DejaVuSans-30"/>
       <use x="127.246094" xlink:href="#DejaVuSans-30"/>
      </g>
     </g>
    </g>
    <g id="xtick_6">
     <g id="line2d_6">
      <g>
       <use style="stroke:#000000;stroke-width:0.8;" x="376.045741" xlink:href="#m8d9a616353" y="44.710417"/>
      </g>
     </g>
     <g id="text_6">
      <!-- 500 -->
      <defs>
       <path d="M 10.796875 72.90625 
L 49.515625 72.90625 
L 49.515625 64.59375 
L 19.828125 64.59375 
L 19.828125 46.734375 
Q 21.96875 47.46875 24.109375 47.828125 
Q 26.265625 48.1875 28.421875 48.1875 
Q 40.625 48.1875 47.75 41.5 
Q 54.890625 34.8125 54.890625 23.390625 
Q 54.890625 11.625 47.5625 5.09375 
Q 40.234375 -1.421875 26.90625 -1.421875 
Q 22.3125 -1.421875 17.546875 -0.640625 
Q 12.796875 0.140625 7.71875 1.703125 
L 7.71875 11.625 
Q 12.109375 9.234375 16.796875 8.0625 
Q 21.484375 6.890625 26.703125 6.890625 
Q 35.15625 6.890625 40.078125 11.328125 
Q 45.015625 15.765625 45.015625 23.390625 
Q 45.015625 31 40.078125 35.4375 
Q 35.15625 39.890625 26.703125 39.890625 
Q 22.75 39.890625 18.8125 39.015625 
Q 14.890625 38.140625 10.796875 36.28125 
z
" id="DejaVuSans-35"/>
      </defs>
      <g transform="translate(366.501991 59.308854)scale(0.1 -0.1)">
       <use xlink:href="#DejaVuSans-35"/>
       <use x="63.623047" xlink:href="#DejaVuSans-30"/>
       <use x="127.246094" xlink:href="#DejaVuSans-30"/>
      </g>
     </g>
    </g>
    <g id="text_7">
     <!-- var1 -->
     <defs>
      <path d="M 2.984375 54.6875 
L 12.5 54.6875 
L 29.59375 8.796875 
L 46.6875 54.6875 
L 56.203125 54.6875 
L 35.6875 0 
L 23.484375 0 
z
" id="DejaVuSans-76"/>
      <path d="M 34.28125 27.484375 
Q 23.390625 27.484375 19.1875 25 
Q 14.984375 22.515625 14.984375 16.5 
Q 14.984375 11.71875 18.140625 8.90625 
Q 21.296875 6.109375 26.703125 6.109375 
Q 34.1875 6.109375 38.703125 11.40625 
Q 43.21875 16.703125 43.21875 25.484375 
L 43.21875 27.484375 
z
M 52.203125 31.203125 
L 52.203125 0 
L 43.21875 0 
L 43.21875 8.296875 
Q 40.140625 3.328125 35.546875 0.953125 
Q 30.953125 -1.421875 24.3125 -1.421875 
Q 15.921875 -1.421875 10.953125 3.296875 
Q 6 8.015625 6 15.921875 
Q 6 25.140625 12.171875 29.828125 
Q 18.359375 34.515625 30.609375 34.515625 
L 43.21875 34.515625 
L 43.21875 35.40625 
Q 43.21875 41.609375 39.140625 45 
Q 35.0625 48.390625 27.6875 48.390625 
Q 23 48.390625 18.546875 47.265625 
Q 14.109375 46.140625 10.015625 43.890625 
L 10.015625 52.203125 
Q 14.9375 54.109375 19.578125 55.046875 
Q 24.21875 56 28.609375 56 
Q 40.484375 56 46.34375 49.84375 
Q 52.203125 43.703125 52.203125 31.203125 
z
" id="DejaVuSans-61"/>
      <path d="M 41.109375 46.296875 
Q 39.59375 47.171875 37.8125 47.578125 
Q 36.03125 48 33.890625 48 
Q 26.265625 48 22.1875 43.046875 
Q 18.109375 38.09375 18.109375 28.8125 
L 18.109375 0 
L 9.078125 0 
L 9.078125 54.6875 
L 18.109375 54.6875 
L 18.109375 46.1875 
Q 20.953125 51.171875 25.484375 53.578125 
Q 30.03125 56 36.53125 56 
Q 37.453125 56 38.578125 55.875 
Q 39.703125 55.765625 41.0625 55.515625 
z
" id="DejaVuSans-72"/>
     </defs>
     <g transform="translate(212.485156 72.986979)scale(0.1 -0.1)">
      <use xlink:href="#DejaVuSans-76"/>
      <use x="59.179688" xlink:href="#DejaVuSans-61"/>
      <use x="120.458984" xlink:href="#DejaVuSans-72"/>
      <use x="161.572266" xlink:href="#DejaVuSans-31"/>
     </g>
    </g>
   </g>
   <g id="matplotlib.axis_2">
    <g id="ytick_1">
     <g id="line2d_7">
      <defs>
       <path d="M 0 0 
L -3.5 0 
" id="me229e23f19" style="stroke:#000000;stroke-width:0.8;"/>
      </defs>
      <g>
       <use style="stroke:#000000;stroke-width:0.8;" x="52.790625" xlink:href="#me229e23f19" y="44.710417"/>
      </g>
     </g>
     <g id="text_8">
      <!-- 0.0000 -->
      <defs>
       <path d="M 10.6875 12.40625 
L 21 12.40625 
L 21 0 
L 10.6875 0 
z
" id="DejaVuSans-2e"/>
      </defs>
      <g transform="translate(10.8 48.509635)scale(0.1 -0.1)">
       <use xlink:href="#DejaVuSans-30"/>
       <use x="63.623047" xlink:href="#DejaVuSans-2e"/>
       <use x="95.410156" xlink:href="#DejaVuSans-30"/>
       <use x="159.033203" xlink:href="#DejaVuSans-30"/>
       <use x="222.65625" xlink:href="#DejaVuSans-30"/>
       <use x="286.279297" xlink:href="#DejaVuSans-30"/>
      </g>
     </g>
    </g>
    <g id="ytick_2">
     <g id="line2d_8">
      <g>
       <use style="stroke:#000000;stroke-width:0.8;" x="52.790625" xlink:href="#me229e23f19" y="28.224183"/>
      </g>
     </g>
     <g id="text_9">
      <!-- 0.0025 -->
      <g transform="translate(10.8 32.023402)scale(0.1 -0.1)">
       <use xlink:href="#DejaVuSans-30"/>
       <use x="63.623047" xlink:href="#DejaVuSans-2e"/>
       <use x="95.410156" xlink:href="#DejaVuSans-30"/>
       <use x="159.033203" xlink:href="#DejaVuSans-30"/>
       <use x="222.65625" xlink:href="#DejaVuSans-32"/>
       <use x="286.279297" xlink:href="#DejaVuSans-35"/>
      </g>
     </g>
    </g>
   </g>
   <g id="line2d_9">
    <path clip-path="url(#pdc2b0bd80a)" d="M 68.33196 44.667571 
L 71.471624 44.643435 
L 74.611288 44.607651 
L 77.750951 44.55567 
L 80.890615 44.481682 
L 84.030279 44.378493 
L 87.169942 44.237481 
L 90.309606 44.048669 
L 93.44927 43.800956 
L 96.588933 43.482528 
L 99.728597 43.081466 
L 102.868261 42.586539 
L 106.007924 41.988139 
L 109.147588 41.279289 
L 112.287252 40.456637 
L 115.426915 39.521315 
L 118.566579 38.479551 
L 121.706243 37.342935 
L 124.845907 36.128273 
L 127.98557 34.857005 
L 131.125234 33.554214 
L 134.264898 32.247327 
L 137.404561 30.964618 
L 140.544225 29.73367 
L 143.683889 28.579954 
L 146.823552 27.525621 
L 149.963216 26.588616 
L 153.10288 25.782113 
L 156.242543 25.114255 
L 159.382207 24.588144 
L 162.521871 24.201988 
L 165.661534 23.949366 
L 168.801198 23.819561 
L 171.940862 23.797975 
L 175.080525 23.866677 
L 178.220189 24.005133 
L 181.359853 24.191175 
L 184.499516 24.402222 
L 187.63918 24.616698 
L 190.778844 24.815544 
L 193.918508 24.983624 
L 197.058171 25.110854 
L 200.197835 25.192821 
L 203.337499 25.230784 
L 206.477162 25.230986 
L 209.616826 25.20334 
L 212.75649 25.159673 
L 215.896153 25.11176 
L 219.035817 25.069466 
L 222.175481 25.039253 
L 225.315144 25.023273 
L 228.454808 25.019155 
L 231.594472 25.020464 
L 234.734135 25.017723 
L 237.873799 24.999785 
L 241.013463 24.955321 
L 244.153126 24.874234 
L 247.29279 24.748811 
L 250.432454 24.574575 
L 253.572117 24.350808 
L 256.711781 24.080836 
L 259.851445 23.772144 
L 262.991109 23.436393 
L 266.130772 23.089378 
L 269.270436 22.750882 
L 272.4101 22.444348 
L 275.549763 22.196267 
L 278.689427 22.035168 
L 281.829091 21.990183 
L 284.968754 22.08919 
L 288.108418 22.356671 
L 291.248082 22.811484 
L 294.387745 23.464812 
L 297.527409 24.318559 
L 300.667073 25.364449 
L 303.806736 26.583989 
L 306.9464 27.949352 
L 310.086064 29.425118 
L 313.225727 30.970699 
L 316.365391 32.543168 
L 319.505055 34.100209 
L 322.644718 35.602844 
L 325.784382 37.017692 
L 328.924046 38.318573 
L 332.06371 39.487343 
L 335.203373 40.513994 
L 338.343037 41.396082 
L 341.482701 42.137663 
L 344.622364 42.747895 
L 347.762028 43.239521 
L 350.901692 43.627378 
L 354.041355 43.927079 
L 357.181019 44.153934 
L 360.320683 44.322169 
L 363.460346 44.444416 
L 366.60001 44.531464 
L 369.739674 44.59221 
L 372.879337 44.633757 
L 376.019001 44.66161 
L 379.158665 44.679913 
" style="fill:none;stroke:#1f77b4;stroke-linecap:square;stroke-width:1.5;"/>
   </g>
   <g id="line2d_10">
    <path clip-path="url(#pdc2b0bd80a)" d="M 68.33196 44.667571 
L 71.471624 44.643435 
L 74.611288 44.607651 
L 77.750951 44.55567 
L 80.890615 44.481682 
L 84.030279 44.378493 
L 87.169942 44.237481 
L 90.309606 44.048669 
L 93.44927 43.800956 
L 96.588933 43.482528 
L 99.728597 43.081466 
L 102.868261 42.586539 
L 106.007924 41.988139 
L 109.147588 41.279289 
L 112.287252 40.456637 
L 115.426915 39.521315 
L 118.566579 38.479551 
L 121.706243 37.342935 
L 124.845907 36.128273 
L 127.98557 34.857005 
L 131.125234 33.554214 
L 134.264898 32.247327 
L 137.404561 30.964618 
L 140.544225 29.73367 
L 143.683889 28.579954 
L 146.823552 27.525621 
L 149.963216 26.588616 
L 153.10288 25.782113 
L 156.242543 25.114255 
L 159.382207 24.588144 
L 162.521871 24.201988 
L 165.661534 23.949366 
L 168.801198 23.819561 
L 171.940862 23.797975 
L 175.080525 23.866677 
L 178.220189 24.005133 
L 181.359853 24.191175 
L 184.499516 24.402222 
L 187.63918 24.616698 
L 190.778844 24.815544 
L 193.918508 24.983624 
L 197.058171 25.110854 
L 200.197835 25.192821 
L 203.337499 25.230784 
L 206.477162 25.230986 
L 209.616826 25.20334 
L 212.75649 25.159673 
L 215.896153 25.11176 
L 219.035817 25.069466 
L 222.175481 25.039253 
L 225.315144 25.023273 
L 228.454808 25.019155 
L 231.594472 25.020464 
L 234.734135 25.017723 
L 237.873799 24.999785 
L 241.013463 24.955321 
L 244.153126 24.874234 
L 247.29279 24.748811 
L 250.432454 24.574575 
L 253.572117 24.350808 
L 256.711781 24.080836 
L 259.851445 23.772144 
L 262.991109 23.436393 
L 266.130772 23.089378 
L 269.270436 22.750882 
L 272.4101 22.444348 
L 275.549763 22.196267 
L 278.689427 22.035168 
L 281.829091 21.990183 
L 284.968754 22.08919 
L 288.108418 22.356671 
L 291.248082 22.811484 
L 294.387745 23.464812 
L 297.527409 24.318559 
L 300.667073 25.364449 
L 303.806736 26.583989 
L 306.9464 27.949352 
L 310.086064 29.425118 
L 313.225727 30.970699 
L 316.365391 32.543168 
L 319.505055 34.100209 
L 322.644718 35.602844 
L 325.784382 37.017692 
L 328.924046 38.318573 
L 332.06371 39.487343 
L 335.203373 40.513994 
L 338.343037 41.396082 
L 341.482701 42.137663 
L 344.622364 42.747895 
L 347.762028 43.239521 
L 350.901692 43.627378 
L 354.041355 43.927079 
L 357.181019 44.153934 
L 360.320683 44.322169 
L 363.460346 44.444416 
L 366.60001 44.531464 
L 369.739674 44.59221 
L 372.879337 44.633757 
L 376.019001 44.66161 
L 379.158665 44.679913 
" style="fill:none;stroke:#ff7f0e;stroke-linecap:square;stroke-width:1.5;"/>
   </g>
   <g id="patch_13">
    <path d="M 52.790625 44.710417 
L 52.790625 14.3 
" style="fill:none;stroke:#000000;stroke-linecap:square;stroke-linejoin:miter;stroke-width:0.8;"/>
   </g>
   <g id="patch_14">
    <path d="M 394.7 44.710417 
L 394.7 14.3 
" style="fill:none;stroke:#000000;stroke-linecap:square;stroke-linejoin:miter;stroke-width:0.8;"/>
   </g>
   <g id="patch_15">
    <path d="M 52.790625 44.710417 
L 394.7 44.710417 
" style="fill:none;stroke:#000000;stroke-linecap:square;stroke-linejoin:miter;stroke-width:0.8;"/>
   </g>
   <g id="patch_16">
    <path d="M 52.790625 14.3 
L 394.7 14.3 
" style="fill:none;stroke:#000000;stroke-linecap:square;stroke-linejoin:miter;stroke-width:0.8;"/>
   </g>
  </g>
  <g id="axes_2">
   <g id="patch_17">
    <path d="M 52.790625 119.777083 
L 394.7 119.777083 
L 394.7 89.366667 
L 52.790625 89.366667 
z
" style="fill:#ffffff;"/>
   </g>
   <g id="patch_18">
    <path clip-path="url(#p21777037d2)" d="M 109.397033 119.777083 
L 110.060719 119.777083 
L 110.060719 90.814782 
L 109.397033 90.814782 
z
" style="fill:#1f77b4;opacity:0.4;"/>
   </g>
   <g id="patch_19">
    <path clip-path="url(#p21777037d2)" d="M 110.060719 119.777083 
L 110.724405 119.777083 
L 110.724405 91.780192 
L 110.060719 91.780192 
z
" style="fill:#1f77b4;opacity:0.4;"/>
   </g>
   <g id="patch_20">
    <path clip-path="url(#p21777037d2)" d="M 110.724405 119.777083 
L 111.38809 119.777083 
L 111.38809 106.261343 
L 110.724405 106.261343 
z
" style="fill:#1f77b4;opacity:0.4;"/>
   </g>
   <g id="patch_21">
    <path clip-path="url(#p21777037d2)" d="M 111.38809 119.777083 
L 112.051776 119.777083 
L 112.051776 112.053803 
L 111.38809 112.053803 
z
" style="fill:#1f77b4;opacity:0.4;"/>
   </g>
   <g id="patch_22">
    <path clip-path="url(#p21777037d2)" d="M 112.051776 119.777083 
L 112.715462 119.777083 
L 112.715462 113.984623 
L 112.051776 113.984623 
z
" style="fill:#1f77b4;opacity:0.4;"/>
   </g>
   <g id="patch_23">
    <path clip-path="url(#p21777037d2)" d="M 112.715462 119.777083 
L 113.379148 119.777083 
L 113.379148 118.811673 
L 112.715462 118.811673 
z
" style="fill:#1f77b4;opacity:0.4;"/>
   </g>
   <g id="patch_24">
    <path clip-path="url(#p21777037d2)" d="M 113.379148 119.777083 
L 114.042833 119.777083 
L 114.042833 113.984623 
L 113.379148 113.984623 
z
" style="fill:#1f77b4;opacity:0.4;"/>
   </g>
   <g id="patch_25">
    <path clip-path="url(#p21777037d2)" d="M 114.042833 119.777083 
L 114.706519 119.777083 
L 114.706519 118.811673 
L 114.042833 118.811673 
z
" style="fill:#1f77b4;opacity:0.4;"/>
   </g>
   <g id="patch_26">
    <path clip-path="url(#p21777037d2)" d="M 114.706519 119.777083 
L 115.370205 119.777083 
L 115.370205 119.777083 
L 114.706519 119.777083 
z
" style="fill:#1f77b4;opacity:0.4;"/>
   </g>
   <g id="patch_27">
    <path clip-path="url(#p21777037d2)" d="M 115.370205 119.777083 
L 116.03389 119.777083 
L 116.03389 118.811673 
L 115.370205 118.811673 
z
" style="fill:#1f77b4;opacity:0.4;"/>
   </g>
   <g id="patch_28">
    <path clip-path="url(#p21777037d2)" d="M 116.03389 119.777083 
L 116.697576 119.777083 
L 116.697576 119.777083 
L 116.03389 119.777083 
z
" style="fill:#1f77b4;opacity:0.4;"/>
   </g>
   <g id="patch_29">
    <path clip-path="url(#p21777037d2)" d="M 116.697576 119.777083 
L 117.361262 119.777083 
L 117.361262 118.811673 
L 116.697576 118.811673 
z
" style="fill:#1f77b4;opacity:0.4;"/>
   </g>
   <g id="patch_30">
    <path clip-path="url(#p21777037d2)" d="M 117.361262 119.777083 
L 118.024948 119.777083 
L 118.024948 119.777083 
L 117.361262 119.777083 
z
" style="fill:#1f77b4;opacity:0.4;"/>
   </g>
   <g id="patch_31">
    <path clip-path="url(#p21777037d2)" d="M 118.024948 119.777083 
L 118.688633 119.777083 
L 118.688633 119.777083 
L 118.024948 119.777083 
z
" style="fill:#1f77b4;opacity:0.4;"/>
   </g>
   <g id="patch_32">
    <path clip-path="url(#p21777037d2)" d="M 118.688633 119.777083 
L 119.352319 119.777083 
L 119.352319 119.777083 
L 118.688633 119.777083 
z
" style="fill:#1f77b4;opacity:0.4;"/>
   </g>
   <g id="patch_33">
    <path clip-path="url(#p21777037d2)" d="M 119.352319 119.777083 
L 120.016005 119.777083 
L 120.016005 119.777083 
L 119.352319 119.777083 
z
" style="fill:#1f77b4;opacity:0.4;"/>
   </g>
   <g id="patch_34">
    <path clip-path="url(#p21777037d2)" d="M 120.016005 119.777083 
L 120.67969 119.777083 
L 120.67969 119.777083 
L 120.016005 119.777083 
z
" style="fill:#1f77b4;opacity:0.4;"/>
   </g>
   <g id="patch_35">
    <path clip-path="url(#p21777037d2)" d="M 120.67969 119.777083 
L 121.343376 119.777083 
L 121.343376 118.811673 
L 120.67969 118.811673 
z
" style="fill:#1f77b4;opacity:0.4;"/>
   </g>
   <g id="patch_36">
    <path clip-path="url(#p21777037d2)" d="M 121.343376 119.777083 
L 122.007062 119.777083 
L 122.007062 119.777083 
L 121.343376 119.777083 
z
" style="fill:#1f77b4;opacity:0.4;"/>
   </g>
   <g id="patch_37">
    <path clip-path="url(#p21777037d2)" d="M 122.007062 119.777083 
L 122.670748 119.777083 
L 122.670748 119.777083 
L 122.007062 119.777083 
z
" style="fill:#1f77b4;opacity:0.4;"/>
   </g>
   <g id="patch_38">
    <path clip-path="url(#p21777037d2)" d="M 122.670748 119.777083 
L 123.334433 119.777083 
L 123.334433 119.777083 
L 122.670748 119.777083 
z
" style="fill:#1f77b4;opacity:0.4;"/>
   </g>
   <g id="patch_39">
    <path clip-path="url(#p21777037d2)" d="M 123.334433 119.777083 
L 123.998119 119.777083 
L 123.998119 119.777083 
L 123.334433 119.777083 
z
" style="fill:#1f77b4;opacity:0.4;"/>
   </g>
   <g id="patch_40">
    <path clip-path="url(#p21777037d2)" d="M 123.998119 119.777083 
L 124.661805 119.777083 
L 124.661805 117.846263 
L 123.998119 117.846263 
z
" style="fill:#1f77b4;opacity:0.4;"/>
   </g>
   <g id="patch_41">
    <path clip-path="url(#p21777037d2)" d="M 109.351031 119.777083 
L 113.926802 119.777083 
L 113.926802 109.415128 
L 109.351031 109.415128 
z
" style="fill:#ff7f0e;opacity:0.4;"/>
   </g>
   <g id="patch_42">
    <path clip-path="url(#p21777037d2)" d="M 113.926802 119.777083 
L 118.502573 119.777083 
L 118.502573 118.796898 
L 113.926802 118.796898 
z
" style="fill:#ff7f0e;opacity:0.4;"/>
   </g>
   <g id="patch_43">
    <path clip-path="url(#p21777037d2)" d="M 118.502573 119.777083 
L 123.078345 119.777083 
L 123.078345 119.216978 
L 118.502573 119.216978 
z
" style="fill:#ff7f0e;opacity:0.4;"/>
   </g>
   <g id="patch_44">
    <path clip-path="url(#p21777037d2)" d="M 123.078345 119.777083 
L 127.654116 119.777083 
L 127.654116 119.49703 
L 123.078345 119.49703 
z
" style="fill:#ff7f0e;opacity:0.4;"/>
   </g>
   <g id="patch_45">
    <path clip-path="url(#p21777037d2)" d="M 127.654116 119.777083 
L 132.229887 119.777083 
L 132.229887 119.637057 
L 127.654116 119.637057 
z
" style="fill:#ff7f0e;opacity:0.4;"/>
   </g>
   <g id="patch_46">
    <path clip-path="url(#p21777037d2)" d="M 132.229887 119.777083 
L 136.805658 119.777083 
L 136.805658 119.777083 
L 132.229887 119.777083 
z
" style="fill:#ff7f0e;opacity:0.4;"/>
   </g>
   <g id="patch_47">
    <path clip-path="url(#p21777037d2)" d="M 136.805658 119.777083 
L 141.38143 119.777083 
L 141.38143 119.637057 
L 136.805658 119.637057 
z
" style="fill:#ff7f0e;opacity:0.4;"/>
   </g>
   <g id="patch_48">
    <path clip-path="url(#p21777037d2)" d="M 141.38143 119.777083 
L 145.957201 119.777083 
L 145.957201 119.637057 
L 141.38143 119.637057 
z
" style="fill:#ff7f0e;opacity:0.4;"/>
   </g>
   <g id="patch_49">
    <path clip-path="url(#p21777037d2)" d="M 145.957201 119.777083 
L 150.532972 119.777083 
L 150.532972 119.777083 
L 145.957201 119.777083 
z
" style="fill:#ff7f0e;opacity:0.4;"/>
   </g>
   <g id="patch_50">
    <path clip-path="url(#p21777037d2)" d="M 150.532972 119.777083 
L 155.108744 119.777083 
L 155.108744 119.777083 
L 150.532972 119.777083 
z
" style="fill:#ff7f0e;opacity:0.4;"/>
   </g>
   <g id="patch_51">
    <path clip-path="url(#p21777037d2)" d="M 155.108744 119.777083 
L 159.684515 119.777083 
L 159.684515 119.49703 
L 155.108744 119.49703 
z
" style="fill:#ff7f0e;opacity:0.4;"/>
   </g>
   <g id="patch_52">
    <path clip-path="url(#p21777037d2)" d="M 159.684515 119.777083 
L 164.260286 119.777083 
L 164.260286 119.777083 
L 159.684515 119.777083 
z
" style="fill:#ff7f0e;opacity:0.4;"/>
   </g>
   <g id="patch_53">
    <path clip-path="url(#p21777037d2)" d="M 164.260286 119.777083 
L 168.836057 119.777083 
L 168.836057 119.777083 
L 164.260286 119.777083 
z
" style="fill:#ff7f0e;opacity:0.4;"/>
   </g>
   <g id="patch_54">
    <path clip-path="url(#p21777037d2)" d="M 168.836057 119.777083 
L 173.411829 119.777083 
L 173.411829 119.637057 
L 168.836057 119.637057 
z
" style="fill:#ff7f0e;opacity:0.4;"/>
   </g>
   <g id="patch_55">
    <path clip-path="url(#p21777037d2)" d="M 173.411829 119.777083 
L 177.9876 119.777083 
L 177.9876 119.357004 
L 173.411829 119.357004 
z
" style="fill:#ff7f0e;opacity:0.4;"/>
   </g>
   <g id="patch_56">
    <path clip-path="url(#p21777037d2)" d="M 177.9876 119.777083 
L 182.563371 119.777083 
L 182.563371 119.777083 
L 177.9876 119.777083 
z
" style="fill:#ff7f0e;opacity:0.4;"/>
   </g>
   <g id="patch_57">
    <path clip-path="url(#p21777037d2)" d="M 182.563371 119.777083 
L 187.139142 119.777083 
L 187.139142 119.777083 
L 182.563371 119.777083 
z
" style="fill:#ff7f0e;opacity:0.4;"/>
   </g>
   <g id="patch_58">
    <path clip-path="url(#p21777037d2)" d="M 187.139142 119.777083 
L 191.714914 119.777083 
L 191.714914 119.637057 
L 187.139142 119.637057 
z
" style="fill:#ff7f0e;opacity:0.4;"/>
   </g>
   <g id="patch_59">
    <path clip-path="url(#p21777037d2)" d="M 191.714914 119.777083 
L 196.290685 119.777083 
L 196.290685 119.777083 
L 191.714914 119.777083 
z
" style="fill:#ff7f0e;opacity:0.4;"/>
   </g>
   <g id="patch_60">
    <path clip-path="url(#p21777037d2)" d="M 196.290685 119.777083 
L 200.866456 119.777083 
L 200.866456 119.777083 
L 196.290685 119.777083 
z
" style="fill:#ff7f0e;opacity:0.4;"/>
   </g>
   <g id="patch_61">
    <path clip-path="url(#p21777037d2)" d="M 200.866456 119.777083 
L 205.442227 119.777083 
L 205.442227 119.777083 
L 200.866456 119.777083 
z
" style="fill:#ff7f0e;opacity:0.4;"/>
   </g>
   <g id="patch_62">
    <path clip-path="url(#p21777037d2)" d="M 205.442227 119.777083 
L 210.017999 119.777083 
L 210.017999 119.777083 
L 205.442227 119.777083 
z
" style="fill:#ff7f0e;opacity:0.4;"/>
   </g>
   <g id="patch_63">
    <path clip-path="url(#p21777037d2)" d="M 210.017999 119.777083 
L 214.59377 119.777083 
L 214.59377 119.777083 
L 210.017999 119.777083 
z
" style="fill:#ff7f0e;opacity:0.4;"/>
   </g>
   <g id="patch_64">
    <path clip-path="url(#p21777037d2)" d="M 214.59377 119.777083 
L 219.169541 119.777083 
L 219.169541 119.777083 
L 214.59377 119.777083 
z
" style="fill:#ff7f0e;opacity:0.4;"/>
   </g>
   <g id="patch_65">
    <path clip-path="url(#p21777037d2)" d="M 219.169541 119.777083 
L 223.745313 119.777083 
L 223.745313 119.637057 
L 219.169541 119.637057 
z
" style="fill:#ff7f0e;opacity:0.4;"/>
   </g>
   <g id="patch_66">
    <path clip-path="url(#p21777037d2)" d="M 223.745312 119.777083 
L 228.321084 119.777083 
L 228.321084 119.777083 
L 223.745312 119.777083 
z
" style="fill:#ff7f0e;opacity:0.4;"/>
   </g>
   <g id="patch_67">
    <path clip-path="url(#p21777037d2)" d="M 228.321084 119.777083 
L 232.896855 119.777083 
L 232.896855 119.777083 
L 228.321084 119.777083 
z
" style="fill:#ff7f0e;opacity:0.4;"/>
   </g>
   <g id="patch_68">
    <path clip-path="url(#p21777037d2)" d="M 232.896855 119.777083 
L 237.472626 119.777083 
L 237.472626 119.777083 
L 232.896855 119.777083 
z
" style="fill:#ff7f0e;opacity:0.4;"/>
   </g>
   <g id="patch_69">
    <path clip-path="url(#p21777037d2)" d="M 237.472626 119.777083 
L 242.048398 119.777083 
L 242.048398 119.777083 
L 237.472626 119.777083 
z
" style="fill:#ff7f0e;opacity:0.4;"/>
   </g>
   <g id="patch_70">
    <path clip-path="url(#p21777037d2)" d="M 242.048398 119.777083 
L 246.624169 119.777083 
L 246.624169 119.777083 
L 242.048398 119.777083 
z
" style="fill:#ff7f0e;opacity:0.4;"/>
   </g>
   <g id="patch_71">
    <path clip-path="url(#p21777037d2)" d="M 246.624169 119.777083 
L 251.19994 119.777083 
L 251.19994 119.777083 
L 246.624169 119.777083 
z
" style="fill:#ff7f0e;opacity:0.4;"/>
   </g>
   <g id="patch_72">
    <path clip-path="url(#p21777037d2)" d="M 251.19994 119.777083 
L 255.775711 119.777083 
L 255.775711 119.777083 
L 251.19994 119.777083 
z
" style="fill:#ff7f0e;opacity:0.4;"/>
   </g>
   <g id="patch_73">
    <path clip-path="url(#p21777037d2)" d="M 255.775711 119.777083 
L 260.351483 119.777083 
L 260.351483 119.777083 
L 255.775711 119.777083 
z
" style="fill:#ff7f0e;opacity:0.4;"/>
   </g>
   <g id="patch_74">
    <path clip-path="url(#p21777037d2)" d="M 260.351483 119.777083 
L 264.927254 119.777083 
L 264.927254 119.777083 
L 260.351483 119.777083 
z
" style="fill:#ff7f0e;opacity:0.4;"/>
   </g>
   <g id="patch_75">
    <path clip-path="url(#p21777037d2)" d="M 264.927254 119.777083 
L 269.503025 119.777083 
L 269.503025 119.777083 
L 264.927254 119.777083 
z
" style="fill:#ff7f0e;opacity:0.4;"/>
   </g>
   <g id="patch_76">
    <path clip-path="url(#p21777037d2)" d="M 269.503025 119.777083 
L 274.078796 119.777083 
L 274.078796 119.777083 
L 269.503025 119.777083 
z
" style="fill:#ff7f0e;opacity:0.4;"/>
   </g>
   <g id="patch_77">
    <path clip-path="url(#p21777037d2)" d="M 274.078796 119.777083 
L 278.654568 119.777083 
L 278.654568 119.777083 
L 274.078796 119.777083 
z
" style="fill:#ff7f0e;opacity:0.4;"/>
   </g>
   <g id="patch_78">
    <path clip-path="url(#p21777037d2)" d="M 278.654568 119.777083 
L 283.230339 119.777083 
L 283.230339 119.777083 
L 278.654568 119.777083 
z
" style="fill:#ff7f0e;opacity:0.4;"/>
   </g>
   <g id="patch_79">
    <path clip-path="url(#p21777037d2)" d="M 283.230339 119.777083 
L 287.80611 119.777083 
L 287.80611 119.777083 
L 283.230339 119.777083 
z
" style="fill:#ff7f0e;opacity:0.4;"/>
   </g>
   <g id="patch_80">
    <path clip-path="url(#p21777037d2)" d="M 287.80611 119.777083 
L 292.381881 119.777083 
L 292.381881 119.777083 
L 287.80611 119.777083 
z
" style="fill:#ff7f0e;opacity:0.4;"/>
   </g>
   <g id="patch_81">
    <path clip-path="url(#p21777037d2)" d="M 292.381881 119.777083 
L 296.957653 119.777083 
L 296.957653 119.777083 
L 292.381881 119.777083 
z
" style="fill:#ff7f0e;opacity:0.4;"/>
   </g>
   <g id="patch_82">
    <path clip-path="url(#p21777037d2)" d="M 296.957653 119.777083 
L 301.533424 119.777083 
L 301.533424 119.777083 
L 296.957653 119.777083 
z
" style="fill:#ff7f0e;opacity:0.4;"/>
   </g>
   <g id="patch_83">
    <path clip-path="url(#p21777037d2)" d="M 301.533424 119.777083 
L 306.109195 119.777083 
L 306.109195 119.637057 
L 301.533424 119.637057 
z
" style="fill:#ff7f0e;opacity:0.4;"/>
   </g>
   <g id="patch_84">
    <path clip-path="url(#p21777037d2)" d="M 306.109195 119.777083 
L 310.684967 119.777083 
L 310.684967 119.777083 
L 306.109195 119.777083 
z
" style="fill:#ff7f0e;opacity:0.4;"/>
   </g>
   <g id="patch_85">
    <path clip-path="url(#p21777037d2)" d="M 310.684967 119.777083 
L 315.260738 119.777083 
L 315.260738 119.777083 
L 310.684967 119.777083 
z
" style="fill:#ff7f0e;opacity:0.4;"/>
   </g>
   <g id="patch_86">
    <path clip-path="url(#p21777037d2)" d="M 315.260738 119.777083 
L 319.836509 119.777083 
L 319.836509 119.777083 
L 315.260738 119.777083 
z
" style="fill:#ff7f0e;opacity:0.4;"/>
   </g>
   <g id="patch_87">
    <path clip-path="url(#p21777037d2)" d="M 319.836509 119.777083 
L 324.41228 119.777083 
L 324.41228 119.777083 
L 319.836509 119.777083 
z
" style="fill:#ff7f0e;opacity:0.4;"/>
   </g>
   <g id="patch_88">
    <path clip-path="url(#p21777037d2)" d="M 324.41228 119.777083 
L 328.988052 119.777083 
L 328.988052 119.777083 
L 324.41228 119.777083 
z
" style="fill:#ff7f0e;opacity:0.4;"/>
   </g>
   <g id="patch_89">
    <path clip-path="url(#p21777037d2)" d="M 328.988052 119.777083 
L 333.563823 119.777083 
L 333.563823 119.777083 
L 328.988052 119.777083 
z
" style="fill:#ff7f0e;opacity:0.4;"/>
   </g>
   <g id="patch_90">
    <path clip-path="url(#p21777037d2)" d="M 333.563823 119.777083 
L 338.139594 119.777083 
L 338.139594 119.637057 
L 333.563823 119.637057 
z
" style="fill:#ff7f0e;opacity:0.4;"/>
   </g>
   <g id="patch_91">
    <path clip-path="url(#p21777037d2)" d="M 109.397033 119.777083 
L 110.060719 119.777083 
L 110.060719 90.814782 
L 109.397033 90.814782 
z
" style="fill:#2ca02c;opacity:0.4;"/>
   </g>
   <g id="patch_92">
    <path clip-path="url(#p21777037d2)" d="M 110.060719 119.777083 
L 110.724405 119.777083 
L 110.724405 91.780192 
L 110.060719 91.780192 
z
" style="fill:#2ca02c;opacity:0.4;"/>
   </g>
   <g id="patch_93">
    <path clip-path="url(#p21777037d2)" d="M 110.724405 119.777083 
L 111.38809 119.777083 
L 111.38809 106.261343 
L 110.724405 106.261343 
z
" style="fill:#2ca02c;opacity:0.4;"/>
   </g>
   <g id="patch_94">
    <path clip-path="url(#p21777037d2)" d="M 111.38809 119.777083 
L 112.051776 119.777083 
L 112.051776 112.053803 
L 111.38809 112.053803 
z
" style="fill:#2ca02c;opacity:0.4;"/>
   </g>
   <g id="patch_95">
    <path clip-path="url(#p21777037d2)" d="M 112.051776 119.777083 
L 112.715462 119.777083 
L 112.715462 113.984623 
L 112.051776 113.984623 
z
" style="fill:#2ca02c;opacity:0.4;"/>
   </g>
   <g id="patch_96">
    <path clip-path="url(#p21777037d2)" d="M 112.715462 119.777083 
L 113.379148 119.777083 
L 113.379148 118.811673 
L 112.715462 118.811673 
z
" style="fill:#2ca02c;opacity:0.4;"/>
   </g>
   <g id="patch_97">
    <path clip-path="url(#p21777037d2)" d="M 113.379148 119.777083 
L 114.042833 119.777083 
L 114.042833 113.984623 
L 113.379148 113.984623 
z
" style="fill:#2ca02c;opacity:0.4;"/>
   </g>
   <g id="patch_98">
    <path clip-path="url(#p21777037d2)" d="M 114.042833 119.777083 
L 114.706519 119.777083 
L 114.706519 118.811673 
L 114.042833 118.811673 
z
" style="fill:#2ca02c;opacity:0.4;"/>
   </g>
   <g id="patch_99">
    <path clip-path="url(#p21777037d2)" d="M 114.706519 119.777083 
L 115.370205 119.777083 
L 115.370205 119.777083 
L 114.706519 119.777083 
z
" style="fill:#2ca02c;opacity:0.4;"/>
   </g>
   <g id="patch_100">
    <path clip-path="url(#p21777037d2)" d="M 115.370205 119.777083 
L 116.03389 119.777083 
L 116.03389 118.811673 
L 115.370205 118.811673 
z
" style="fill:#2ca02c;opacity:0.4;"/>
   </g>
   <g id="patch_101">
    <path clip-path="url(#p21777037d2)" d="M 116.03389 119.777083 
L 116.697576 119.777083 
L 116.697576 119.777083 
L 116.03389 119.777083 
z
" style="fill:#2ca02c;opacity:0.4;"/>
   </g>
   <g id="patch_102">
    <path clip-path="url(#p21777037d2)" d="M 116.697576 119.777083 
L 117.361262 119.777083 
L 117.361262 118.811673 
L 116.697576 118.811673 
z
" style="fill:#2ca02c;opacity:0.4;"/>
   </g>
   <g id="patch_103">
    <path clip-path="url(#p21777037d2)" d="M 117.361262 119.777083 
L 118.024948 119.777083 
L 118.024948 119.777083 
L 117.361262 119.777083 
z
" style="fill:#2ca02c;opacity:0.4;"/>
   </g>
   <g id="patch_104">
    <path clip-path="url(#p21777037d2)" d="M 118.024948 119.777083 
L 118.688633 119.777083 
L 118.688633 119.777083 
L 118.024948 119.777083 
z
" style="fill:#2ca02c;opacity:0.4;"/>
   </g>
   <g id="patch_105">
    <path clip-path="url(#p21777037d2)" d="M 118.688633 119.777083 
L 119.352319 119.777083 
L 119.352319 119.777083 
L 118.688633 119.777083 
z
" style="fill:#2ca02c;opacity:0.4;"/>
   </g>
   <g id="patch_106">
    <path clip-path="url(#p21777037d2)" d="M 119.352319 119.777083 
L 120.016005 119.777083 
L 120.016005 119.777083 
L 119.352319 119.777083 
z
" style="fill:#2ca02c;opacity:0.4;"/>
   </g>
   <g id="patch_107">
    <path clip-path="url(#p21777037d2)" d="M 120.016005 119.777083 
L 120.67969 119.777083 
L 120.67969 119.777083 
L 120.016005 119.777083 
z
" style="fill:#2ca02c;opacity:0.4;"/>
   </g>
   <g id="patch_108">
    <path clip-path="url(#p21777037d2)" d="M 120.67969 119.777083 
L 121.343376 119.777083 
L 121.343376 118.811673 
L 120.67969 118.811673 
z
" style="fill:#2ca02c;opacity:0.4;"/>
   </g>
   <g id="patch_109">
    <path clip-path="url(#p21777037d2)" d="M 121.343376 119.777083 
L 122.007062 119.777083 
L 122.007062 119.777083 
L 121.343376 119.777083 
z
" style="fill:#2ca02c;opacity:0.4;"/>
   </g>
   <g id="patch_110">
    <path clip-path="url(#p21777037d2)" d="M 122.007062 119.777083 
L 122.670748 119.777083 
L 122.670748 119.777083 
L 122.007062 119.777083 
z
" style="fill:#2ca02c;opacity:0.4;"/>
   </g>
   <g id="patch_111">
    <path clip-path="url(#p21777037d2)" d="M 122.670748 119.777083 
L 123.334433 119.777083 
L 123.334433 119.777083 
L 122.670748 119.777083 
z
" style="fill:#2ca02c;opacity:0.4;"/>
   </g>
   <g id="patch_112">
    <path clip-path="url(#p21777037d2)" d="M 123.334433 119.777083 
L 123.998119 119.777083 
L 123.998119 119.777083 
L 123.334433 119.777083 
z
" style="fill:#2ca02c;opacity:0.4;"/>
   </g>
   <g id="patch_113">
    <path clip-path="url(#p21777037d2)" d="M 123.998119 119.777083 
L 124.661805 119.777083 
L 124.661805 117.846263 
L 123.998119 117.846263 
z
" style="fill:#2ca02c;opacity:0.4;"/>
   </g>
   <g id="matplotlib.axis_3">
    <g id="xtick_7">
     <g id="line2d_11">
      <g>
       <use style="stroke:#000000;stroke-width:0.8;" x="59.346504" xlink:href="#m8d9a616353" y="119.777083"/>
      </g>
     </g>
     <g id="text_10">
      <!-- −50 -->
      <defs>
       <path d="M 10.59375 35.5 
L 73.1875 35.5 
L 73.1875 27.203125 
L 10.59375 27.203125 
z
" id="DejaVuSans-2212"/>
      </defs>
      <g transform="translate(48.79416 134.375521)scale(0.1 -0.1)">
       <use xlink:href="#DejaVuSans-2212"/>
       <use x="83.789062" xlink:href="#DejaVuSans-35"/>
       <use x="147.412109" xlink:href="#DejaVuSans-30"/>
      </g>
     </g>
    </g>
    <g id="xtick_8">
     <g id="line2d_12">
      <g>
       <use style="stroke:#000000;stroke-width:0.8;" x="109.349031" xlink:href="#m8d9a616353" y="119.777083"/>
      </g>
     </g>
     <g id="text_11">
      <!-- 0 -->
      <g transform="translate(106.167781 134.375521)scale(0.1 -0.1)">
       <use xlink:href="#DejaVuSans-30"/>
      </g>
     </g>
    </g>
    <g id="xtick_9">
     <g id="line2d_13">
      <g>
       <use style="stroke:#000000;stroke-width:0.8;" x="159.351558" xlink:href="#m8d9a616353" y="119.777083"/>
      </g>
     </g>
     <g id="text_12">
      <!-- 50 -->
      <g transform="translate(152.989058 134.375521)scale(0.1 -0.1)">
       <use xlink:href="#DejaVuSans-35"/>
       <use x="63.623047" xlink:href="#DejaVuSans-30"/>
      </g>
     </g>
    </g>
    <g id="xtick_10">
     <g id="line2d_14">
      <g>
       <use style="stroke:#000000;stroke-width:0.8;" x="209.354085" xlink:href="#m8d9a616353" y="119.777083"/>
      </g>
     </g>
     <g id="text_13">
      <!-- 100 -->
      <g transform="translate(199.810335 134.375521)scale(0.1 -0.1)">
       <use xlink:href="#DejaVuSans-31"/>
       <use x="63.623047" xlink:href="#DejaVuSans-30"/>
       <use x="127.246094" xlink:href="#DejaVuSans-30"/>
      </g>
     </g>
    </g>
    <g id="xtick_11">
     <g id="line2d_15">
      <g>
       <use style="stroke:#000000;stroke-width:0.8;" x="259.356612" xlink:href="#m8d9a616353" y="119.777083"/>
      </g>
     </g>
     <g id="text_14">
      <!-- 150 -->
      <g transform="translate(249.812862 134.375521)scale(0.1 -0.1)">
       <use xlink:href="#DejaVuSans-31"/>
       <use x="63.623047" xlink:href="#DejaVuSans-35"/>
       <use x="127.246094" xlink:href="#DejaVuSans-30"/>
      </g>
     </g>
    </g>
    <g id="xtick_12">
     <g id="line2d_16">
      <g>
       <use style="stroke:#000000;stroke-width:0.8;" x="309.35914" xlink:href="#m8d9a616353" y="119.777083"/>
      </g>
     </g>
     <g id="text_15">
      <!-- 200 -->
      <g transform="translate(299.81539 134.375521)scale(0.1 -0.1)">
       <use xlink:href="#DejaVuSans-32"/>
       <use x="63.623047" xlink:href="#DejaVuSans-30"/>
       <use x="127.246094" xlink:href="#DejaVuSans-30"/>
      </g>
     </g>
    </g>
    <g id="xtick_13">
     <g id="line2d_17">
      <g>
       <use style="stroke:#000000;stroke-width:0.8;" x="359.361667" xlink:href="#m8d9a616353" y="119.777083"/>
      </g>
     </g>
     <g id="text_16">
      <!-- 250 -->
      <g transform="translate(349.817917 134.375521)scale(0.1 -0.1)">
       <use xlink:href="#DejaVuSans-32"/>
       <use x="63.623047" xlink:href="#DejaVuSans-35"/>
       <use x="127.246094" xlink:href="#DejaVuSans-30"/>
      </g>
     </g>
    </g>
    <g id="text_17">
     <!-- var2 -->
     <g transform="translate(212.485156 148.053646)scale(0.1 -0.1)">
      <use xlink:href="#DejaVuSans-76"/>
      <use x="59.179688" xlink:href="#DejaVuSans-61"/>
      <use x="120.458984" xlink:href="#DejaVuSans-72"/>
      <use x="161.572266" xlink:href="#DejaVuSans-32"/>
     </g>
    </g>
   </g>
   <g id="matplotlib.axis_4">
    <g id="ytick_3">
     <g id="line2d_18">
      <g>
       <use style="stroke:#000000;stroke-width:0.8;" x="52.790625" xlink:href="#me229e23f19" y="119.777083"/>
      </g>
     </g>
     <g id="text_18">
      <!-- 0.00 -->
      <g transform="translate(23.525 123.576302)scale(0.1 -0.1)">
       <use xlink:href="#DejaVuSans-30"/>
       <use x="63.623047" xlink:href="#DejaVuSans-2e"/>
       <use x="95.410156" xlink:href="#DejaVuSans-30"/>
       <use x="159.033203" xlink:href="#DejaVuSans-30"/>
      </g>
     </g>
    </g>
    <g id="ytick_4">
     <g id="line2d_19">
      <g>
       <use style="stroke:#000000;stroke-width:0.8;" x="52.790625" xlink:href="#me229e23f19" y="103.759671"/>
      </g>
     </g>
     <g id="text_19">
      <!-- 0.25 -->
      <g transform="translate(23.525 107.55889)scale(0.1 -0.1)">
       <use xlink:href="#DejaVuSans-30"/>
       <use x="63.623047" xlink:href="#DejaVuSans-2e"/>
       <use x="95.410156" xlink:href="#DejaVuSans-32"/>
       <use x="159.033203" xlink:href="#DejaVuSans-35"/>
      </g>
     </g>
    </g>
   </g>
   <g id="line2d_20">
    <path clip-path="url(#p21777037d2)" d="M 106.326542 119.734039 
L 106.542761 119.693673 
L 106.758981 119.621977 
L 106.975201 119.500214 
L 107.191421 119.30252 
L 107.40764 118.995741 
L 107.62386 118.540888 
L 107.84008 117.896811 
L 108.0563 117.026331 
L 108.272519 115.904414 
L 108.488739 114.527159 
L 108.704959 112.919648 
L 108.921179 111.140377 
L 109.137398 109.280269 
L 109.353618 107.455319 
L 109.569838 105.793423 
L 109.786057 104.417532 
L 110.002277 103.428444 
L 110.218497 102.890807 
L 110.434717 102.825243 
L 110.650936 103.207989 
L 110.867156 103.977626 
L 111.083376 105.046907 
L 111.299596 106.316742 
L 111.515815 107.689405 
L 111.732035 109.078739 
L 111.948255 110.416331 
L 112.164475 111.653786 
L 112.380694 112.762031 
L 112.596914 113.728866 
L 112.813134 114.555726 
L 113.029354 115.254244 
L 113.245573 115.842777 
L 113.461793 116.342903 
L 113.678013 116.776019 
L 113.894233 117.160334 
L 114.110452 117.508742 
L 114.326672 117.827951 
L 114.542892 118.119049 
L 114.759112 118.379246 
L 114.975331 118.604277 
L 115.191551 118.790771 
L 115.407771 118.937982 
L 115.623991 119.048552 
L 115.84021 119.128254 
L 116.05643 119.184981 
L 116.27265 119.227341 
L 116.48887 119.263288 
L 116.705089 119.29905 
L 116.921309 119.338549 
L 117.137529 119.383297 
L 117.353749 119.432715 
L 117.569968 119.484708 
L 117.786188 119.536352 
L 118.002408 119.584539 
L 118.218628 119.626478 
L 118.434847 119.660002 
L 118.651067 119.683682 
L 118.867287 119.696812 
L 119.083507 119.699343 
L 119.299726 119.691827 
L 119.515946 119.675432 
L 119.732166 119.651983 
L 119.948386 119.623986 
L 120.164605 119.594548 
L 120.380825 119.567135 
L 120.597045 119.545152 
L 120.813265 119.531421 
L 121.029484 119.527669 
L 121.245704 119.534152 
L 121.461924 119.549529 
L 121.678143 119.571017 
L 121.894363 119.594776 
L 122.110583 119.616434 
L 122.326803 119.631652 
L 122.543022 119.636643 
L 122.759242 119.628626 
L 122.975462 119.606206 
L 123.191682 119.569684 
L 123.407901 119.521258 
L 123.624121 119.465028 
L 123.840341 119.406712 
L 124.056561 119.353009 
L 124.27278 119.310653 
L 124.489 119.285304 
L 124.70522 119.280537 
L 124.92144 119.297183 
L 125.137659 119.333225 
L 125.353879 119.384263 
L 125.570099 119.44444 
L 125.786319 119.507565 
L 126.002538 119.568146 
L 126.218758 119.622108 
L 126.434978 119.667101 
L 126.651198 119.702404 
L 126.867417 119.728567 
L 127.083637 119.746926 
L 127.299857 119.759148 
L 127.516077 119.766877 
L 127.732296 119.771527 
" style="fill:none;stroke:#1f77b4;stroke-linecap:square;stroke-width:1.5;"/>
   </g>
   <g id="line2d_21">
    <path clip-path="url(#p21777037d2)" d="M 68.33196 119.763763 
L 71.471624 119.750975 
L 74.611288 119.728476 
L 77.750951 119.691126 
L 80.890615 119.632682 
L 84.030279 119.54662 
L 87.169942 119.427608 
L 90.309606 119.273501 
L 93.44927 119.087441 
L 96.588933 118.879337 
L 99.728597 118.665988 
L 102.868261 118.469317 
L 106.007924 118.312773 
L 109.147588 118.216659 
L 112.287252 118.193663 
L 115.426915 118.245967 
L 118.566579 118.364853 
L 121.706243 118.532915 
L 124.845907 118.728099 
L 127.98557 118.928303 
L 131.125234 119.115209 
L 134.264898 119.276524 
L 137.404561 119.406406 
L 140.544225 119.504461 
L 143.683889 119.573998 
L 146.823552 119.620192 
L 149.963216 119.648638 
L 153.10288 119.664441 
L 156.242543 119.67183 
L 159.382207 119.674116 
L 162.521871 119.67382 
L 165.661534 119.672838 
L 168.801198 119.672555 
L 171.940862 119.673908 
L 175.080525 119.677401 
L 178.220189 119.683129 
L 181.359853 119.690818 
L 184.499516 119.699917 
L 187.63918 119.709718 
L 190.778844 119.71948 
L 193.918508 119.728537 
L 197.058171 119.736381 
L 200.197835 119.742705 
L 203.337499 119.747417 
L 206.477162 119.750633 
L 209.616826 119.752644 
L 212.75649 119.753859 
L 215.896153 119.754733 
L 219.035817 119.755677 
L 222.175481 119.756989 
L 225.315144 119.758803 
L 228.454808 119.761091 
L 231.594472 119.763696 
L 234.734135 119.766394 
L 237.873799 119.768957 
L 241.013463 119.771209 
L 244.153126 119.773046 
L 247.29279 119.774445 
L 250.432454 119.775438 
L 253.572117 119.776091 
L 256.711781 119.776474 
L 259.851445 119.776647 
L 262.991109 119.776638 
L 266.130772 119.776448 
L 269.270436 119.776042 
L 272.4101 119.775361 
L 275.549763 119.774334 
L 278.689427 119.772901 
L 281.829091 119.771036 
L 284.968754 119.768781 
L 288.108418 119.766258 
L 291.248082 119.763675 
L 294.387745 119.761297 
L 297.527409 119.759396 
L 300.667073 119.758184 
L 303.806736 119.757754 
L 306.9464 119.758043 
L 310.086064 119.758837 
L 313.225727 119.75982 
L 316.365391 119.760654 
L 319.505055 119.761065 
L 322.644718 119.760924 
L 325.784382 119.760274 
L 328.924046 119.759325 
L 332.06371 119.758394 
L 335.203373 119.757818 
L 338.343037 119.757872 
L 341.482701 119.758696 
L 344.622364 119.760274 
L 347.762028 119.762446 
L 350.901692 119.764961 
L 354.041355 119.767544 
L 357.181019 119.769955 
L 360.320683 119.772025 
L 363.460346 119.773676 
L 366.60001 119.774905 
L 369.739674 119.775761 
L 372.879337 119.776322 
L 376.019001 119.776667 
L 379.158665 119.776867 
" style="fill:none;stroke:#ff7f0e;stroke-linecap:square;stroke-width:1.5;"/>
   </g>
   <g id="line2d_22">
    <path clip-path="url(#p21777037d2)" d="M 106.326542 119.734039 
L 106.542761 119.693673 
L 106.758981 119.621977 
L 106.975201 119.500214 
L 107.191421 119.30252 
L 107.40764 118.995741 
L 107.62386 118.540888 
L 107.84008 117.896811 
L 108.0563 117.026331 
L 108.272519 115.904414 
L 108.488739 114.527159 
L 108.704959 112.919648 
L 108.921179 111.140377 
L 109.137398 109.280269 
L 109.353618 107.455319 
L 109.569838 105.793423 
L 109.786057 104.417532 
L 110.002277 103.428444 
L 110.218497 102.890807 
L 110.434717 102.825243 
L 110.650936 103.207989 
L 110.867156 103.977626 
L 111.083376 105.046907 
L 111.299596 106.316742 
L 111.515815 107.689405 
L 111.732035 109.078739 
L 111.948255 110.416331 
L 112.164475 111.653786 
L 112.380694 112.762031 
L 112.596914 113.728866 
L 112.813134 114.555726 
L 113.029354 115.254244 
L 113.245573 115.842777 
L 113.461793 116.342903 
L 113.678013 116.776019 
L 113.894233 117.160334 
L 114.110452 117.508742 
L 114.326672 117.827951 
L 114.542892 118.119049 
L 114.759112 118.379246 
L 114.975331 118.604277 
L 115.191551 118.790771 
L 115.407771 118.937982 
L 115.623991 119.048552 
L 115.84021 119.128254 
L 116.05643 119.184981 
L 116.27265 119.227341 
L 116.48887 119.263288 
L 116.705089 119.29905 
L 116.921309 119.338549 
L 117.137529 119.383297 
L 117.353749 119.432715 
L 117.569968 119.484708 
L 117.786188 119.536352 
L 118.002408 119.584539 
L 118.218628 119.626478 
L 118.434847 119.660002 
L 118.651067 119.683682 
L 118.867287 119.696812 
L 119.083507 119.699343 
L 119.299726 119.691827 
L 119.515946 119.675432 
L 119.732166 119.651983 
L 119.948386 119.623986 
L 120.164605 119.594548 
L 120.380825 119.567135 
L 120.597045 119.545152 
L 120.813265 119.531421 
L 121.029484 119.527669 
L 121.245704 119.534152 
L 121.461924 119.549529 
L 121.678143 119.571017 
L 121.894363 119.594776 
L 122.110583 119.616434 
L 122.326803 119.631652 
L 122.543022 119.636643 
L 122.759242 119.628626 
L 122.975462 119.606206 
L 123.191682 119.569684 
L 123.407901 119.521258 
L 123.624121 119.465028 
L 123.840341 119.406712 
L 124.056561 119.353009 
L 124.27278 119.310653 
L 124.489 119.285304 
L 124.70522 119.280537 
L 124.92144 119.297183 
L 125.137659 119.333225 
L 125.353879 119.384263 
L 125.570099 119.44444 
L 125.786319 119.507565 
L 126.002538 119.568146 
L 126.218758 119.622108 
L 126.434978 119.667101 
L 126.651198 119.702404 
L 126.867417 119.728567 
L 127.083637 119.746926 
L 127.299857 119.759148 
L 127.516077 119.766877 
L 127.732296 119.771527 
" style="fill:none;stroke:#2ca02c;stroke-linecap:square;stroke-width:1.5;"/>
   </g>
   <g id="patch_114">
    <path d="M 52.790625 119.777083 
L 52.790625 89.366667 
" style="fill:none;stroke:#000000;stroke-linecap:square;stroke-linejoin:miter;stroke-width:0.8;"/>
   </g>
   <g id="patch_115">
    <path d="M 394.7 119.777083 
L 394.7 89.366667 
" style="fill:none;stroke:#000000;stroke-linecap:square;stroke-linejoin:miter;stroke-width:0.8;"/>
   </g>
   <g id="patch_116">
    <path d="M 52.790625 119.777083 
L 394.7 119.777083 
" style="fill:none;stroke:#000000;stroke-linecap:square;stroke-linejoin:miter;stroke-width:0.8;"/>
   </g>
   <g id="patch_117">
    <path d="M 52.790625 89.366667 
L 394.7 89.366667 
" style="fill:none;stroke:#000000;stroke-linecap:square;stroke-linejoin:miter;stroke-width:0.8;"/>
   </g>
  </g>
  <g id="axes_3">
   <g id="patch_118">
    <path d="M 52.790625 194.84375 
L 394.7 194.84375 
L 394.7 164.433333 
L 52.790625 164.433333 
z
" style="fill:#ffffff;"/>
   </g>
   <g id="patch_119">
    <path clip-path="url(#pb3a905a6ca)" d="M 109.351031 194.84375 
L 113.926802 194.84375 
L 113.926802 165.881448 
L 109.351031 165.881448 
z
" style="fill:#1f77b4;opacity:0.4;"/>
   </g>
   <g id="patch_120">
    <path clip-path="url(#pb3a905a6ca)" d="M 113.926802 194.84375 
L 118.502573 194.84375 
L 118.502573 192.104073 
L 113.926802 192.104073 
z
" style="fill:#1f77b4;opacity:0.4;"/>
   </g>
   <g id="patch_121">
    <path clip-path="url(#pb3a905a6ca)" d="M 118.502573 194.84375 
L 123.078345 194.84375 
L 123.078345 193.27822 
L 118.502573 193.27822 
z
" style="fill:#1f77b4;opacity:0.4;"/>
   </g>
   <g id="patch_122">
    <path clip-path="url(#pb3a905a6ca)" d="M 123.078345 194.84375 
L 127.654116 194.84375 
L 127.654116 194.060985 
L 123.078345 194.060985 
z
" style="fill:#1f77b4;opacity:0.4;"/>
   </g>
   <g id="patch_123">
    <path clip-path="url(#pb3a905a6ca)" d="M 127.654116 194.84375 
L 132.229887 194.84375 
L 132.229887 194.452368 
L 127.654116 194.452368 
z
" style="fill:#1f77b4;opacity:0.4;"/>
   </g>
   <g id="patch_124">
    <path clip-path="url(#pb3a905a6ca)" d="M 132.229887 194.84375 
L 136.805658 194.84375 
L 136.805658 194.84375 
L 132.229887 194.84375 
z
" style="fill:#1f77b4;opacity:0.4;"/>
   </g>
   <g id="patch_125">
    <path clip-path="url(#pb3a905a6ca)" d="M 136.805658 194.84375 
L 141.38143 194.84375 
L 141.38143 194.452368 
L 136.805658 194.452368 
z
" style="fill:#1f77b4;opacity:0.4;"/>
   </g>
   <g id="patch_126">
    <path clip-path="url(#pb3a905a6ca)" d="M 141.38143 194.84375 
L 145.957201 194.84375 
L 145.957201 194.452368 
L 141.38143 194.452368 
z
" style="fill:#1f77b4;opacity:0.4;"/>
   </g>
   <g id="patch_127">
    <path clip-path="url(#pb3a905a6ca)" d="M 145.957201 194.84375 
L 150.532972 194.84375 
L 150.532972 194.84375 
L 145.957201 194.84375 
z
" style="fill:#1f77b4;opacity:0.4;"/>
   </g>
   <g id="patch_128">
    <path clip-path="url(#pb3a905a6ca)" d="M 150.532972 194.84375 
L 155.108744 194.84375 
L 155.108744 194.84375 
L 150.532972 194.84375 
z
" style="fill:#1f77b4;opacity:0.4;"/>
   </g>
   <g id="patch_129">
    <path clip-path="url(#pb3a905a6ca)" d="M 155.108744 194.84375 
L 159.684515 194.84375 
L 159.684515 194.060985 
L 155.108744 194.060985 
z
" style="fill:#1f77b4;opacity:0.4;"/>
   </g>
   <g id="patch_130">
    <path clip-path="url(#pb3a905a6ca)" d="M 159.684515 194.84375 
L 164.260286 194.84375 
L 164.260286 194.84375 
L 159.684515 194.84375 
z
" style="fill:#1f77b4;opacity:0.4;"/>
   </g>
   <g id="patch_131">
    <path clip-path="url(#pb3a905a6ca)" d="M 164.260286 194.84375 
L 168.836057 194.84375 
L 168.836057 194.84375 
L 164.260286 194.84375 
z
" style="fill:#1f77b4;opacity:0.4;"/>
   </g>
   <g id="patch_132">
    <path clip-path="url(#pb3a905a6ca)" d="M 168.836057 194.84375 
L 173.411829 194.84375 
L 173.411829 194.452368 
L 168.836057 194.452368 
z
" style="fill:#1f77b4;opacity:0.4;"/>
   </g>
   <g id="patch_133">
    <path clip-path="url(#pb3a905a6ca)" d="M 173.411829 194.84375 
L 177.9876 194.84375 
L 177.9876 193.669603 
L 173.411829 193.669603 
z
" style="fill:#1f77b4;opacity:0.4;"/>
   </g>
   <g id="patch_134">
    <path clip-path="url(#pb3a905a6ca)" d="M 177.9876 194.84375 
L 182.563371 194.84375 
L 182.563371 194.84375 
L 177.9876 194.84375 
z
" style="fill:#1f77b4;opacity:0.4;"/>
   </g>
   <g id="patch_135">
    <path clip-path="url(#pb3a905a6ca)" d="M 182.563371 194.84375 
L 187.139142 194.84375 
L 187.139142 194.84375 
L 182.563371 194.84375 
z
" style="fill:#1f77b4;opacity:0.4;"/>
   </g>
   <g id="patch_136">
    <path clip-path="url(#pb3a905a6ca)" d="M 187.139142 194.84375 
L 191.714914 194.84375 
L 191.714914 194.452368 
L 187.139142 194.452368 
z
" style="fill:#1f77b4;opacity:0.4;"/>
   </g>
   <g id="patch_137">
    <path clip-path="url(#pb3a905a6ca)" d="M 191.714914 194.84375 
L 196.290685 194.84375 
L 196.290685 194.84375 
L 191.714914 194.84375 
z
" style="fill:#1f77b4;opacity:0.4;"/>
   </g>
   <g id="patch_138">
    <path clip-path="url(#pb3a905a6ca)" d="M 196.290685 194.84375 
L 200.866456 194.84375 
L 200.866456 194.84375 
L 196.290685 194.84375 
z
" style="fill:#1f77b4;opacity:0.4;"/>
   </g>
   <g id="patch_139">
    <path clip-path="url(#pb3a905a6ca)" d="M 200.866456 194.84375 
L 205.442227 194.84375 
L 205.442227 194.84375 
L 200.866456 194.84375 
z
" style="fill:#1f77b4;opacity:0.4;"/>
   </g>
   <g id="patch_140">
    <path clip-path="url(#pb3a905a6ca)" d="M 205.442227 194.84375 
L 210.017999 194.84375 
L 210.017999 194.84375 
L 205.442227 194.84375 
z
" style="fill:#1f77b4;opacity:0.4;"/>
   </g>
   <g id="patch_141">
    <path clip-path="url(#pb3a905a6ca)" d="M 210.017999 194.84375 
L 214.59377 194.84375 
L 214.59377 194.84375 
L 210.017999 194.84375 
z
" style="fill:#1f77b4;opacity:0.4;"/>
   </g>
   <g id="patch_142">
    <path clip-path="url(#pb3a905a6ca)" d="M 214.59377 194.84375 
L 219.169541 194.84375 
L 219.169541 194.84375 
L 214.59377 194.84375 
z
" style="fill:#1f77b4;opacity:0.4;"/>
   </g>
   <g id="patch_143">
    <path clip-path="url(#pb3a905a6ca)" d="M 219.169541 194.84375 
L 223.745313 194.84375 
L 223.745313 194.452368 
L 219.169541 194.452368 
z
" style="fill:#1f77b4;opacity:0.4;"/>
   </g>
   <g id="patch_144">
    <path clip-path="url(#pb3a905a6ca)" d="M 223.745312 194.84375 
L 228.321084 194.84375 
L 228.321084 194.84375 
L 223.745312 194.84375 
z
" style="fill:#1f77b4;opacity:0.4;"/>
   </g>
   <g id="patch_145">
    <path clip-path="url(#pb3a905a6ca)" d="M 228.321084 194.84375 
L 232.896855 194.84375 
L 232.896855 194.84375 
L 228.321084 194.84375 
z
" style="fill:#1f77b4;opacity:0.4;"/>
   </g>
   <g id="patch_146">
    <path clip-path="url(#pb3a905a6ca)" d="M 232.896855 194.84375 
L 237.472626 194.84375 
L 237.472626 194.84375 
L 232.896855 194.84375 
z
" style="fill:#1f77b4;opacity:0.4;"/>
   </g>
   <g id="patch_147">
    <path clip-path="url(#pb3a905a6ca)" d="M 237.472626 194.84375 
L 242.048398 194.84375 
L 242.048398 194.84375 
L 237.472626 194.84375 
z
" style="fill:#1f77b4;opacity:0.4;"/>
   </g>
   <g id="patch_148">
    <path clip-path="url(#pb3a905a6ca)" d="M 242.048398 194.84375 
L 246.624169 194.84375 
L 246.624169 194.84375 
L 242.048398 194.84375 
z
" style="fill:#1f77b4;opacity:0.4;"/>
   </g>
   <g id="patch_149">
    <path clip-path="url(#pb3a905a6ca)" d="M 246.624169 194.84375 
L 251.19994 194.84375 
L 251.19994 194.84375 
L 246.624169 194.84375 
z
" style="fill:#1f77b4;opacity:0.4;"/>
   </g>
   <g id="patch_150">
    <path clip-path="url(#pb3a905a6ca)" d="M 251.19994 194.84375 
L 255.775711 194.84375 
L 255.775711 194.84375 
L 251.19994 194.84375 
z
" style="fill:#1f77b4;opacity:0.4;"/>
   </g>
   <g id="patch_151">
    <path clip-path="url(#pb3a905a6ca)" d="M 255.775711 194.84375 
L 260.351483 194.84375 
L 260.351483 194.84375 
L 255.775711 194.84375 
z
" style="fill:#1f77b4;opacity:0.4;"/>
   </g>
   <g id="patch_152">
    <path clip-path="url(#pb3a905a6ca)" d="M 260.351483 194.84375 
L 264.927254 194.84375 
L 264.927254 194.84375 
L 260.351483 194.84375 
z
" style="fill:#1f77b4;opacity:0.4;"/>
   </g>
   <g id="patch_153">
    <path clip-path="url(#pb3a905a6ca)" d="M 264.927254 194.84375 
L 269.503025 194.84375 
L 269.503025 194.84375 
L 264.927254 194.84375 
z
" style="fill:#1f77b4;opacity:0.4;"/>
   </g>
   <g id="patch_154">
    <path clip-path="url(#pb3a905a6ca)" d="M 269.503025 194.84375 
L 274.078796 194.84375 
L 274.078796 194.84375 
L 269.503025 194.84375 
z
" style="fill:#1f77b4;opacity:0.4;"/>
   </g>
   <g id="patch_155">
    <path clip-path="url(#pb3a905a6ca)" d="M 274.078796 194.84375 
L 278.654568 194.84375 
L 278.654568 194.84375 
L 274.078796 194.84375 
z
" style="fill:#1f77b4;opacity:0.4;"/>
   </g>
   <g id="patch_156">
    <path clip-path="url(#pb3a905a6ca)" d="M 278.654568 194.84375 
L 283.230339 194.84375 
L 283.230339 194.84375 
L 278.654568 194.84375 
z
" style="fill:#1f77b4;opacity:0.4;"/>
   </g>
   <g id="patch_157">
    <path clip-path="url(#pb3a905a6ca)" d="M 283.230339 194.84375 
L 287.80611 194.84375 
L 287.80611 194.84375 
L 283.230339 194.84375 
z
" style="fill:#1f77b4;opacity:0.4;"/>
   </g>
   <g id="patch_158">
    <path clip-path="url(#pb3a905a6ca)" d="M 287.80611 194.84375 
L 292.381881 194.84375 
L 292.381881 194.84375 
L 287.80611 194.84375 
z
" style="fill:#1f77b4;opacity:0.4;"/>
   </g>
   <g id="patch_159">
    <path clip-path="url(#pb3a905a6ca)" d="M 292.381881 194.84375 
L 296.957653 194.84375 
L 296.957653 194.84375 
L 292.381881 194.84375 
z
" style="fill:#1f77b4;opacity:0.4;"/>
   </g>
   <g id="patch_160">
    <path clip-path="url(#pb3a905a6ca)" d="M 296.957653 194.84375 
L 301.533424 194.84375 
L 301.533424 194.84375 
L 296.957653 194.84375 
z
" style="fill:#1f77b4;opacity:0.4;"/>
   </g>
   <g id="patch_161">
    <path clip-path="url(#pb3a905a6ca)" d="M 301.533424 194.84375 
L 306.109195 194.84375 
L 306.109195 194.452368 
L 301.533424 194.452368 
z
" style="fill:#1f77b4;opacity:0.4;"/>
   </g>
   <g id="patch_162">
    <path clip-path="url(#pb3a905a6ca)" d="M 306.109195 194.84375 
L 310.684967 194.84375 
L 310.684967 194.84375 
L 306.109195 194.84375 
z
" style="fill:#1f77b4;opacity:0.4;"/>
   </g>
   <g id="patch_163">
    <path clip-path="url(#pb3a905a6ca)" d="M 310.684967 194.84375 
L 315.260738 194.84375 
L 315.260738 194.84375 
L 310.684967 194.84375 
z
" style="fill:#1f77b4;opacity:0.4;"/>
   </g>
   <g id="patch_164">
    <path clip-path="url(#pb3a905a6ca)" d="M 315.260738 194.84375 
L 319.836509 194.84375 
L 319.836509 194.84375 
L 315.260738 194.84375 
z
" style="fill:#1f77b4;opacity:0.4;"/>
   </g>
   <g id="patch_165">
    <path clip-path="url(#pb3a905a6ca)" d="M 319.836509 194.84375 
L 324.41228 194.84375 
L 324.41228 194.84375 
L 319.836509 194.84375 
z
" style="fill:#1f77b4;opacity:0.4;"/>
   </g>
   <g id="patch_166">
    <path clip-path="url(#pb3a905a6ca)" d="M 324.41228 194.84375 
L 328.988052 194.84375 
L 328.988052 194.84375 
L 324.41228 194.84375 
z
" style="fill:#1f77b4;opacity:0.4;"/>
   </g>
   <g id="patch_167">
    <path clip-path="url(#pb3a905a6ca)" d="M 328.988052 194.84375 
L 333.563823 194.84375 
L 333.563823 194.84375 
L 328.988052 194.84375 
z
" style="fill:#1f77b4;opacity:0.4;"/>
   </g>
   <g id="patch_168">
    <path clip-path="url(#pb3a905a6ca)" d="M 333.563823 194.84375 
L 338.139594 194.84375 
L 338.139594 194.452368 
L 333.563823 194.452368 
z
" style="fill:#1f77b4;opacity:0.4;"/>
   </g>
   <g id="matplotlib.axis_5">
    <g id="xtick_14">
     <g id="line2d_23">
      <g>
       <use style="stroke:#000000;stroke-width:0.8;" x="59.346504" xlink:href="#m8d9a616353" y="194.84375"/>
      </g>
     </g>
     <g id="text_20">
      <!-- −50 -->
      <g transform="translate(48.79416 209.442188)scale(0.1 -0.1)">
       <use xlink:href="#DejaVuSans-2212"/>
       <use x="83.789062" xlink:href="#DejaVuSans-35"/>
       <use x="147.412109" xlink:href="#DejaVuSans-30"/>
      </g>
     </g>
    </g>
    <g id="xtick_15">
     <g id="line2d_24">
      <g>
       <use style="stroke:#000000;stroke-width:0.8;" x="109.349031" xlink:href="#m8d9a616353" y="194.84375"/>
      </g>
     </g>
     <g id="text_21">
      <!-- 0 -->
      <g transform="translate(106.167781 209.442188)scale(0.1 -0.1)">
       <use xlink:href="#DejaVuSans-30"/>
      </g>
     </g>
    </g>
    <g id="xtick_16">
     <g id="line2d_25">
      <g>
       <use style="stroke:#000000;stroke-width:0.8;" x="159.351558" xlink:href="#m8d9a616353" y="194.84375"/>
      </g>
     </g>
     <g id="text_22">
      <!-- 50 -->
      <g transform="translate(152.989058 209.442188)scale(0.1 -0.1)">
       <use xlink:href="#DejaVuSans-35"/>
       <use x="63.623047" xlink:href="#DejaVuSans-30"/>
      </g>
     </g>
    </g>
    <g id="xtick_17">
     <g id="line2d_26">
      <g>
       <use style="stroke:#000000;stroke-width:0.8;" x="209.354085" xlink:href="#m8d9a616353" y="194.84375"/>
      </g>
     </g>
     <g id="text_23">
      <!-- 100 -->
      <g transform="translate(199.810335 209.442188)scale(0.1 -0.1)">
       <use xlink:href="#DejaVuSans-31"/>
       <use x="63.623047" xlink:href="#DejaVuSans-30"/>
       <use x="127.246094" xlink:href="#DejaVuSans-30"/>
      </g>
     </g>
    </g>
    <g id="xtick_18">
     <g id="line2d_27">
      <g>
       <use style="stroke:#000000;stroke-width:0.8;" x="259.356612" xlink:href="#m8d9a616353" y="194.84375"/>
      </g>
     </g>
     <g id="text_24">
      <!-- 150 -->
      <g transform="translate(249.812862 209.442188)scale(0.1 -0.1)">
       <use xlink:href="#DejaVuSans-31"/>
       <use x="63.623047" xlink:href="#DejaVuSans-35"/>
       <use x="127.246094" xlink:href="#DejaVuSans-30"/>
      </g>
     </g>
    </g>
    <g id="xtick_19">
     <g id="line2d_28">
      <g>
       <use style="stroke:#000000;stroke-width:0.8;" x="309.35914" xlink:href="#m8d9a616353" y="194.84375"/>
      </g>
     </g>
     <g id="text_25">
      <!-- 200 -->
      <g transform="translate(299.81539 209.442188)scale(0.1 -0.1)">
       <use xlink:href="#DejaVuSans-32"/>
       <use x="63.623047" xlink:href="#DejaVuSans-30"/>
       <use x="127.246094" xlink:href="#DejaVuSans-30"/>
      </g>
     </g>
    </g>
    <g id="xtick_20">
     <g id="line2d_29">
      <g>
       <use style="stroke:#000000;stroke-width:0.8;" x="359.361667" xlink:href="#m8d9a616353" y="194.84375"/>
      </g>
     </g>
     <g id="text_26">
      <!-- 250 -->
      <g transform="translate(349.817917 209.442188)scale(0.1 -0.1)">
       <use xlink:href="#DejaVuSans-32"/>
       <use x="63.623047" xlink:href="#DejaVuSans-35"/>
       <use x="127.246094" xlink:href="#DejaVuSans-30"/>
      </g>
     </g>
    </g>
    <g id="text_27">
     <!-- var3 -->
     <g transform="translate(212.485156 223.120313)scale(0.1 -0.1)">
      <use xlink:href="#DejaVuSans-76"/>
      <use x="59.179688" xlink:href="#DejaVuSans-61"/>
      <use x="120.458984" xlink:href="#DejaVuSans-72"/>
      <use x="161.572266" xlink:href="#DejaVuSans-33"/>
     </g>
    </g>
   </g>
   <g id="matplotlib.axis_6">
    <g id="ytick_5">
     <g id="line2d_30">
      <g>
       <use style="stroke:#000000;stroke-width:0.8;" x="52.790625" xlink:href="#me229e23f19" y="194.84375"/>
      </g>
     </g>
     <g id="text_28">
      <!-- 0.0 -->
      <g transform="translate(29.8875 198.642969)scale(0.1 -0.1)">
       <use xlink:href="#DejaVuSans-30"/>
       <use x="63.623047" xlink:href="#DejaVuSans-2e"/>
       <use x="95.410156" xlink:href="#DejaVuSans-30"/>
      </g>
     </g>
    </g>
    <g id="ytick_6">
     <g id="line2d_31">
      <g>
       <use style="stroke:#000000;stroke-width:0.8;" x="52.790625" xlink:href="#me229e23f19" y="176.935889"/>
      </g>
     </g>
     <g id="text_29">
      <!-- 0.1 -->
      <g transform="translate(29.8875 180.735108)scale(0.1 -0.1)">
       <use xlink:href="#DejaVuSans-30"/>
       <use x="63.623047" xlink:href="#DejaVuSans-2e"/>
       <use x="95.410156" xlink:href="#DejaVuSans-31"/>
      </g>
     </g>
    </g>
   </g>
   <g id="line2d_32">
    <path clip-path="url(#pb3a905a6ca)" d="M 68.33196 194.806519 
L 71.471624 194.770774 
L 74.611288 194.70789 
L 77.750951 194.603493 
L 80.890615 194.440138 
L 84.030279 194.199591 
L 87.169942 193.866944 
L 90.309606 193.436208 
L 93.44927 192.916157 
L 96.588933 192.334493 
L 99.728597 191.73817 
L 102.868261 191.188463 
L 106.007924 190.750913 
L 109.147588 190.482268 
L 112.287252 190.417993 
L 115.426915 190.564185 
L 118.566579 190.896479 
L 121.706243 191.366222 
L 124.845907 191.911775 
L 127.98557 192.471356 
L 131.125234 192.99377 
L 134.264898 193.444657 
L 137.404561 193.807685 
L 140.544225 194.081755 
L 143.683889 194.276113 
L 146.823552 194.40523 
L 149.963216 194.484737 
L 153.10288 194.528907 
L 156.242543 194.54956 
L 159.382207 194.555949 
L 162.521871 194.555123 
L 165.661534 194.552377 
L 168.801198 194.551587 
L 171.940862 194.555368 
L 175.080525 194.565133 
L 178.220189 194.581142 
L 181.359853 194.602632 
L 184.499516 194.628066 
L 187.63918 194.655461 
L 190.778844 194.682744 
L 193.918508 194.708059 
L 197.058171 194.729985 
L 200.197835 194.747661 
L 203.337499 194.760832 
L 206.477162 194.76982 
L 209.616826 194.775439 
L 212.75649 194.778837 
L 215.896153 194.781279 
L 219.035817 194.783919 
L 222.175481 194.787584 
L 225.315144 194.792655 
L 228.454808 194.79905 
L 231.594472 194.806333 
L 234.734135 194.813873 
L 237.873799 194.821037 
L 241.013463 194.82733 
L 244.153126 194.832466 
L 247.29279 194.836376 
L 250.432454 194.839152 
L 253.572117 194.840976 
L 256.711781 194.842048 
L 259.851445 194.84253 
L 262.991109 194.842506 
L 266.130772 194.841974 
L 269.270436 194.840838 
L 272.4101 194.838935 
L 275.549763 194.836066 
L 278.689427 194.832059 
L 281.829091 194.826848 
L 284.968754 194.820543 
L 288.108418 194.813492 
L 291.248082 194.806273 
L 294.387745 194.799627 
L 297.527409 194.794313 
L 300.667073 194.790926 
L 303.806736 194.789723 
L 306.9464 194.79053 
L 310.086064 194.79275 
L 313.225727 194.795498 
L 316.365391 194.797828 
L 319.505055 194.798979 
L 322.644718 194.798583 
L 325.784382 194.796767 
L 328.924046 194.794115 
L 332.06371 194.791512 
L 335.203373 194.789903 
L 338.343037 194.790053 
L 341.482701 194.792357 
L 344.622364 194.796767 
L 347.762028 194.802837 
L 350.901692 194.809868 
L 354.041355 194.817088 
L 357.181019 194.823825 
L 360.320683 194.829612 
L 363.460346 194.834226 
L 366.60001 194.83766 
L 369.739674 194.840054 
L 372.879337 194.841621 
L 376.019001 194.842586 
L 379.158665 194.843146 
" style="fill:none;stroke:#1f77b4;stroke-linecap:square;stroke-width:1.5;"/>
   </g>
   <g id="patch_169">
    <path d="M 52.790625 194.84375 
L 52.790625 164.433333 
" style="fill:none;stroke:#000000;stroke-linecap:square;stroke-linejoin:miter;stroke-width:0.8;"/>
   </g>
   <g id="patch_170">
    <path d="M 394.7 194.84375 
L 394.7 164.433333 
" style="fill:none;stroke:#000000;stroke-linecap:square;stroke-linejoin:miter;stroke-width:0.8;"/>
   </g>
   <g id="patch_171">
    <path d="M 52.790625 194.84375 
L 394.7 194.84375 
" style="fill:none;stroke:#000000;stroke-linecap:square;stroke-linejoin:miter;stroke-width:0.8;"/>
   </g>
   <g id="patch_172">
    <path d="M 52.790625 164.433333 
L 394.7 164.433333 
" style="fill:none;stroke:#000000;stroke-linecap:square;stroke-linejoin:miter;stroke-width:0.8;"/>
   </g>
  </g>
 </g>
 <defs>
  <clipPath id="pdc2b0bd80a">
   <rect height="30.410417" width="341.909375" x="52.790625" y="14.3"/>
  </clipPath>
  <clipPath id="p21777037d2">
   <rect height="30.410417" width="341.909375" x="52.790625" y="89.366667"/>
  </clipPath>
  <clipPath id="pb3a905a6ca">
   <rect height="30.410417" width="341.909375" x="52.790625" y="164.433333"/>
  </clipPath>
 </defs>
</svg>
