<?xml version="1.0" encoding="utf-8" standalone="no"?>
<!DOCTYPE svg PUBLIC "-//W3C//DTD SVG 1.1//EN"
  "http://www.w3.org/Graphics/SVG/1.1/DTD/svg11.dtd">
<!-- Created with matplotlib (http://matplotlib.org/) -->
<svg height="237pt" version="1.1" viewBox="0 0 411 237" width="411pt" xmlns="http://www.w3.org/2000/svg" xmlns:xlink="http://www.w3.org/1999/xlink">
 <defs>
  <style type="text/css">
*{stroke-linecap:butt;stroke-linejoin:round;}
  </style>
 </defs>
 <g id="figure_1">
  <g id="patch_1">
   <path d="M 0 237 
L 411 237 
L 411 0 
L 0 0 
z
" style="fill:#ffffff;"/>
  </g>
  <g id="axes_1">
   <g id="patch_2">
    <path d="M 40.065625 45.04375 
L 396.7 45.04375 
L 396.7 14.3 
L 40.065625 14.3 
z
" style="fill:#ffffff;"/>
   </g>
   <g id="patch_3">
    <path clip-path="url(#pa951071deb)" d="M 90.414259 45.04375 
L 101.54196 45.04375 
L 101.54196 43.047403 
L 90.414259 43.047403 
z
" style="fill:#1f77b4;opacity:0.4;"/>
   </g>
   <g id="patch_4">
    <path clip-path="url(#pa951071deb)" d="M 101.54196 45.04375 
L 112.66966 45.04375 
L 112.66966 45.04375 
L 101.54196 45.04375 
z
" style="fill:#1f77b4;opacity:0.4;"/>
   </g>
   <g id="patch_5">
    <path clip-path="url(#pa951071deb)" d="M 112.66966 45.04375 
L 123.79736 45.04375 
L 123.79736 36.58304 
L 112.66966 36.58304 
z
" style="fill:#1f77b4;opacity:0.4;"/>
   </g>
   <g id="patch_6">
    <path clip-path="url(#pa951071deb)" d="M 123.79736 45.04375 
L 134.92506 45.04375 
L 134.92506 45.04375 
L 123.79736 45.04375 
z
" style="fill:#1f77b4;opacity:0.4;"/>
   </g>
   <g id="patch_7">
    <path clip-path="url(#pa951071deb)" d="M 134.92506 45.04375 
L 146.052761 45.04375 
L 146.052761 38.19913 
L 134.92506 38.19913 
z
" style="fill:#1f77b4;opacity:0.4;"/>
   </g>
   <g id="patch_8">
    <path clip-path="url(#pa951071deb)" d="M 146.052761 45.04375 
L 157.180461 45.04375 
L 157.180461 37.818874 
L 146.052761 37.818874 
z
" style="fill:#1f77b4;opacity:0.4;"/>
   </g>
   <g id="patch_9">
    <path clip-path="url(#pa951071deb)" d="M 157.180461 45.04375 
L 168.308161 45.04375 
L 168.308161 33.350858 
L 157.180461 33.350858 
z
" style="fill:#1f77b4;opacity:0.4;"/>
   </g>
   <g id="patch_10">
    <path clip-path="url(#pa951071deb)" d="M 168.308161 45.04375 
L 179.435862 45.04375 
L 179.435862 45.04375 
L 168.308161 45.04375 
z
" style="fill:#1f77b4;opacity:0.4;"/>
   </g>
   <g id="patch_11">
    <path clip-path="url(#pa951071deb)" d="M 179.435862 45.04375 
L 190.563562 45.04375 
L 190.563562 28.407522 
L 179.435862 28.407522 
z
" style="fill:#1f77b4;opacity:0.4;"/>
   </g>
   <g id="patch_12">
    <path clip-path="url(#pa951071deb)" d="M 190.563562 45.04375 
L 201.691262 45.04375 
L 201.691262 30.498933 
L 190.563562 30.498933 
z
" style="fill:#1f77b4;opacity:0.4;"/>
   </g>
   <g id="patch_13">
    <path clip-path="url(#pa951071deb)" d="M 201.691262 45.04375 
L 212.818962 45.04375 
L 212.818962 37.438617 
L 201.691262 37.438617 
z
" style="fill:#1f77b4;opacity:0.4;"/>
   </g>
   <g id="patch_14">
    <path clip-path="url(#pa951071deb)" d="M 212.818962 45.04375 
L 223.946663 45.04375 
L 223.946663 25.745725 
L 212.818962 25.745725 
z
" style="fill:#1f77b4;opacity:0.4;"/>
   </g>
   <g id="patch_15">
    <path clip-path="url(#pa951071deb)" d="M 223.946663 45.04375 
L 235.074363 45.04375 
L 235.074363 20.707325 
L 223.946663 20.707325 
z
" style="fill:#1f77b4;opacity:0.4;"/>
   </g>
   <g id="patch_16">
    <path clip-path="url(#pa951071deb)" d="M 235.074363 45.04375 
L 246.202063 45.04375 
L 246.202063 20.992517 
L 235.074363 20.992517 
z
" style="fill:#1f77b4;opacity:0.4;"/>
   </g>
   <g id="patch_17">
    <path clip-path="url(#pa951071deb)" d="M 246.202063 45.04375 
L 257.329763 45.04375 
L 257.329763 22.988864 
L 246.202063 22.988864 
z
" style="fill:#1f77b4;opacity:0.4;"/>
   </g>
   <g id="patch_18">
    <path clip-path="url(#pa951071deb)" d="M 257.329763 45.04375 
L 268.457464 45.04375 
L 268.457464 20.802389 
L 257.329763 20.802389 
z
" style="fill:#1f77b4;opacity:0.4;"/>
   </g>
   <g id="patch_19">
    <path clip-path="url(#pa951071deb)" d="M 268.457464 45.04375 
L 279.585164 45.04375 
L 279.585164 15.763988 
L 268.457464 15.763988 
z
" style="fill:#1f77b4;opacity:0.4;"/>
   </g>
   <g id="patch_20">
    <path clip-path="url(#pa951071deb)" d="M 279.585164 45.04375 
L 290.712864 45.04375 
L 290.712864 24.319763 
L 279.585164 24.319763 
z
" style="fill:#1f77b4;opacity:0.4;"/>
   </g>
   <g id="patch_21">
    <path clip-path="url(#pa951071deb)" d="M 290.712864 45.04375 
L 301.840565 45.04375 
L 301.840565 29.73842 
L 290.712864 29.73842 
z
" style="fill:#1f77b4;opacity:0.4;"/>
   </g>
   <g id="patch_22">
    <path clip-path="url(#pa951071deb)" d="M 301.840565 45.04375 
L 312.968265 45.04375 
L 312.968265 26.31611 
L 301.840565 26.31611 
z
" style="fill:#1f77b4;opacity:0.4;"/>
   </g>
   <g id="patch_23">
    <path clip-path="url(#pa951071deb)" d="M 312.968265 45.04375 
L 324.095965 45.04375 
L 324.095965 19.661619 
L 312.968265 19.661619 
z
" style="fill:#1f77b4;opacity:0.4;"/>
   </g>
   <g id="patch_24">
    <path clip-path="url(#pa951071deb)" d="M 324.095965 45.04375 
L 335.223665 45.04375 
L 335.223665 18.99617 
L 324.095965 18.99617 
z
" style="fill:#1f77b4;opacity:0.4;"/>
   </g>
   <g id="patch_25">
    <path clip-path="url(#pa951071deb)" d="M 335.223665 45.04375 
L 346.351366 45.04375 
L 346.351366 23.178993 
L 335.223665 23.178993 
z
" style="fill:#1f77b4;opacity:0.4;"/>
   </g>
   <g id="matplotlib.axis_1">
    <g id="xtick_1">
     <g id="line2d_1">
      <defs>
       <path d="M 0 0 
L 0 3.5 
" id="mc0b2b11baf" style="stroke:#000000;stroke-width:0.8;"/>
      </defs>
      <g>
       <use style="stroke:#000000;stroke-width:0.8;" x="79.532212" xlink:href="#mc0b2b11baf" y="45.04375"/>
      </g>
     </g>
     <g id="text_1">
      <!-- −3 -->
      <defs>
       <path d="M 10.59375 35.5 
L 73.1875 35.5 
L 73.1875 27.203125 
L 10.59375 27.203125 
z
" id="DejaVuSans-2212"/>
       <path d="M 40.578125 39.3125 
Q 47.65625 37.796875 51.625 33 
Q 55.609375 28.21875 55.609375 21.1875 
Q 55.609375 10.40625 48.1875 4.484375 
Q 40.765625 -1.421875 27.09375 -1.421875 
Q 22.515625 -1.421875 17.65625 -0.515625 
Q 12.796875 0.390625 7.625 2.203125 
L 7.625 11.71875 
Q 11.71875 9.328125 16.59375 8.109375 
Q 21.484375 6.890625 26.8125 6.890625 
Q 36.078125 6.890625 40.9375 10.546875 
Q 45.796875 14.203125 45.796875 21.1875 
Q 45.796875 27.640625 41.28125 31.265625 
Q 36.765625 34.90625 28.71875 34.90625 
L 20.21875 34.90625 
L 20.21875 43.015625 
L 29.109375 43.015625 
Q 36.375 43.015625 40.234375 45.921875 
Q 44.09375 48.828125 44.09375 54.296875 
Q 44.09375 59.90625 40.109375 62.90625 
Q 36.140625 65.921875 28.71875 65.921875 
Q 24.65625 65.921875 20.015625 65.03125 
Q 15.375 64.15625 9.8125 62.3125 
L 9.8125 71.09375 
Q 15.4375 72.65625 20.34375 73.4375 
Q 25.25 74.21875 29.59375 74.21875 
Q 40.828125 74.21875 47.359375 69.109375 
Q 53.90625 64.015625 53.90625 55.328125 
Q 53.90625 49.265625 50.4375 45.09375 
Q 46.96875 40.921875 40.578125 39.3125 
z
" id="DejaVuSans-33"/>
      </defs>
      <g transform="translate(72.161118 59.642187)scale(0.1 -0.1)">
       <use xlink:href="#DejaVuSans-2212"/>
       <use x="83.789062" xlink:href="#DejaVuSans-33"/>
      </g>
     </g>
    </g>
    <g id="xtick_2">
     <g id="line2d_2">
      <g>
       <use style="stroke:#000000;stroke-width:0.8;" x="138.201175" xlink:href="#mc0b2b11baf" y="45.04375"/>
      </g>
     </g>
     <g id="text_2">
      <!-- −2 -->
      <defs>
       <path d="M 19.1875 8.296875 
L 53.609375 8.296875 
L 53.609375 0 
L 7.328125 0 
L 7.328125 8.296875 
Q 12.9375 14.109375 22.625 23.890625 
Q 32.328125 33.6875 34.8125 36.53125 
Q 39.546875 41.84375 41.421875 45.53125 
Q 43.3125 49.21875 43.3125 52.78125 
Q 43.3125 58.59375 39.234375 62.25 
Q 35.15625 65.921875 28.609375 65.921875 
Q 23.96875 65.921875 18.8125 64.3125 
Q 13.671875 62.703125 7.8125 59.421875 
L 7.8125 69.390625 
Q 13.765625 71.78125 18.9375 73 
Q 24.125 74.21875 28.421875 74.21875 
Q 39.75 74.21875 46.484375 68.546875 
Q 53.21875 62.890625 53.21875 53.421875 
Q 53.21875 48.921875 51.53125 44.890625 
Q 49.859375 40.875 45.40625 35.40625 
Q 44.1875 33.984375 37.640625 27.21875 
Q 31.109375 20.453125 19.1875 8.296875 
z
" id="DejaVuSans-32"/>
      </defs>
      <g transform="translate(130.830081 59.642187)scale(0.1 -0.1)">
       <use xlink:href="#DejaVuSans-2212"/>
       <use x="83.789062" xlink:href="#DejaVuSans-32"/>
      </g>
     </g>
    </g>
    <g id="xtick_3">
     <g id="line2d_3">
      <g>
       <use style="stroke:#000000;stroke-width:0.8;" x="196.870138" xlink:href="#mc0b2b11baf" y="45.04375"/>
      </g>
     </g>
     <g id="text_3">
      <!-- −1 -->
      <defs>
       <path d="M 12.40625 8.296875 
L 28.515625 8.296875 
L 28.515625 63.921875 
L 10.984375 60.40625 
L 10.984375 69.390625 
L 28.421875 72.90625 
L 38.28125 72.90625 
L 38.28125 8.296875 
L 54.390625 8.296875 
L 54.390625 0 
L 12.40625 0 
z
" id="DejaVuSans-31"/>
      </defs>
      <g transform="translate(189.499044 59.642187)scale(0.1 -0.1)">
       <use xlink:href="#DejaVuSans-2212"/>
       <use x="83.789062" xlink:href="#DejaVuSans-31"/>
      </g>
     </g>
    </g>
    <g id="xtick_4">
     <g id="line2d_4">
      <g>
       <use style="stroke:#000000;stroke-width:0.8;" x="255.539101" xlink:href="#mc0b2b11baf" y="45.04375"/>
      </g>
     </g>
     <g id="text_4">
      <!-- 0 -->
      <defs>
       <path d="M 31.78125 66.40625 
Q 24.171875 66.40625 20.328125 58.90625 
Q 16.5 51.421875 16.5 36.375 
Q 16.5 21.390625 20.328125 13.890625 
Q 24.171875 6.390625 31.78125 6.390625 
Q 39.453125 6.390625 43.28125 13.890625 
Q 47.125 21.390625 47.125 36.375 
Q 47.125 51.421875 43.28125 58.90625 
Q 39.453125 66.40625 31.78125 66.40625 
z
M 31.78125 74.21875 
Q 44.046875 74.21875 50.515625 64.515625 
Q 56.984375 54.828125 56.984375 36.375 
Q 56.984375 17.96875 50.515625 8.265625 
Q 44.046875 -1.421875 31.78125 -1.421875 
Q 19.53125 -1.421875 13.0625 8.265625 
Q 6.59375 17.96875 6.59375 36.375 
Q 6.59375 54.828125 13.0625 64.515625 
Q 19.53125 74.21875 31.78125 74.21875 
z
" id="DejaVuSans-30"/>
      </defs>
      <g transform="translate(252.357851 59.642187)scale(0.1 -0.1)">
       <use xlink:href="#DejaVuSans-30"/>
      </g>
     </g>
    </g>
    <g id="xtick_5">
     <g id="line2d_5">
      <g>
       <use style="stroke:#000000;stroke-width:0.8;" x="314.208064" xlink:href="#mc0b2b11baf" y="45.04375"/>
      </g>
     </g>
     <g id="text_5">
      <!-- 1 -->
      <g transform="translate(311.026814 59.642187)scale(0.1 -0.1)">
       <use xlink:href="#DejaVuSans-31"/>
      </g>
     </g>
    </g>
    <g id="xtick_6">
     <g id="line2d_6">
      <g>
       <use style="stroke:#000000;stroke-width:0.8;" x="372.877027" xlink:href="#mc0b2b11baf" y="45.04375"/>
      </g>
     </g>
     <g id="text_6">
      <!-- 2 -->
      <g transform="translate(369.695777 59.642187)scale(0.1 -0.1)">
       <use xlink:href="#DejaVuSans-32"/>
      </g>
     </g>
    </g>
    <g id="text_7">
     <!-- Recency -->
     <defs>
      <path d="M 44.390625 34.1875 
Q 47.5625 33.109375 50.5625 29.59375 
Q 53.5625 26.078125 56.59375 19.921875 
L 66.609375 0 
L 56 0 
L 46.6875 18.703125 
Q 43.0625 26.03125 39.671875 28.421875 
Q 36.28125 30.8125 30.421875 30.8125 
L 19.671875 30.8125 
L 19.671875 0 
L 9.8125 0 
L 9.8125 72.90625 
L 32.078125 72.90625 
Q 44.578125 72.90625 50.734375 67.671875 
Q 56.890625 62.453125 56.890625 51.90625 
Q 56.890625 45.015625 53.6875 40.46875 
Q 50.484375 35.9375 44.390625 34.1875 
z
M 19.671875 64.796875 
L 19.671875 38.921875 
L 32.078125 38.921875 
Q 39.203125 38.921875 42.84375 42.21875 
Q 46.484375 45.515625 46.484375 51.90625 
Q 46.484375 58.296875 42.84375 61.546875 
Q 39.203125 64.796875 32.078125 64.796875 
z
" id="DejaVuSans-52"/>
      <path d="M 56.203125 29.59375 
L 56.203125 25.203125 
L 14.890625 25.203125 
Q 15.484375 15.921875 20.484375 11.0625 
Q 25.484375 6.203125 34.421875 6.203125 
Q 39.59375 6.203125 44.453125 7.46875 
Q 49.3125 8.734375 54.109375 11.28125 
L 54.109375 2.78125 
Q 49.265625 0.734375 44.1875 -0.34375 
Q 39.109375 -1.421875 33.890625 -1.421875 
Q 20.796875 -1.421875 13.15625 6.1875 
Q 5.515625 13.8125 5.515625 26.8125 
Q 5.515625 40.234375 12.765625 48.109375 
Q 20.015625 56 32.328125 56 
Q 43.359375 56 49.78125 48.890625 
Q 56.203125 41.796875 56.203125 29.59375 
z
M 47.21875 32.234375 
Q 47.125 39.59375 43.09375 43.984375 
Q 39.0625 48.390625 32.421875 48.390625 
Q 24.90625 48.390625 20.390625 44.140625 
Q 15.875 39.890625 15.1875 32.171875 
z
" id="DejaVuSans-65"/>
      <path d="M 48.78125 52.59375 
L 48.78125 44.1875 
Q 44.96875 46.296875 41.140625 47.34375 
Q 37.3125 48.390625 33.40625 48.390625 
Q 24.65625 48.390625 19.8125 42.84375 
Q 14.984375 37.3125 14.984375 27.296875 
Q 14.984375 17.28125 19.8125 11.734375 
Q 24.65625 6.203125 33.40625 6.203125 
Q 37.3125 6.203125 41.140625 7.25 
Q 44.96875 8.296875 48.78125 10.40625 
L 48.78125 2.09375 
Q 45.015625 0.34375 40.984375 -0.53125 
Q 36.96875 -1.421875 32.421875 -1.421875 
Q 20.0625 -1.421875 12.78125 6.34375 
Q 5.515625 14.109375 5.515625 27.296875 
Q 5.515625 40.671875 12.859375 48.328125 
Q 20.21875 56 33.015625 56 
Q 37.15625 56 41.109375 55.140625 
Q 45.0625 54.296875 48.78125 52.59375 
z
" id="DejaVuSans-63"/>
      <path d="M 54.890625 33.015625 
L 54.890625 0 
L 45.90625 0 
L 45.90625 32.71875 
Q 45.90625 40.484375 42.875 44.328125 
Q 39.84375 48.1875 33.796875 48.1875 
Q 26.515625 48.1875 22.3125 43.546875 
Q 18.109375 38.921875 18.109375 30.90625 
L 18.109375 0 
L 9.078125 0 
L 9.078125 54.6875 
L 18.109375 54.6875 
L 18.109375 46.1875 
Q 21.34375 51.125 25.703125 53.5625 
Q 30.078125 56 35.796875 56 
Q 45.21875 56 50.046875 50.171875 
Q 54.890625 44.34375 54.890625 33.015625 
z
" id="DejaVuSans-6e"/>
      <path d="M 32.171875 -5.078125 
Q 28.375 -14.84375 24.75 -17.8125 
Q 21.140625 -20.796875 15.09375 -20.796875 
L 7.90625 -20.796875 
L 7.90625 -13.28125 
L 13.1875 -13.28125 
Q 16.890625 -13.28125 18.9375 -11.515625 
Q 21 -9.765625 23.484375 -3.21875 
L 25.09375 0.875 
L 2.984375 54.6875 
L 12.5 54.6875 
L 29.59375 11.921875 
L 46.6875 54.6875 
L 56.203125 54.6875 
z
" id="DejaVuSans-79"/>
     </defs>
     <g transform="translate(197.132031 73.320312)scale(0.1 -0.1)">
      <use xlink:href="#DejaVuSans-52"/>
      <use x="69.419922" xlink:href="#DejaVuSans-65"/>
      <use x="130.943359" xlink:href="#DejaVuSans-63"/>
      <use x="185.923828" xlink:href="#DejaVuSans-65"/>
      <use x="247.447266" xlink:href="#DejaVuSans-6e"/>
      <use x="310.826172" xlink:href="#DejaVuSans-63"/>
      <use x="365.806641" xlink:href="#DejaVuSans-79"/>
     </g>
    </g>
   </g>
   <g id="matplotlib.axis_2">
    <g id="ytick_1">
     <g id="line2d_7">
      <defs>
       <path d="M 0 0 
L -3.5 0 
" id="m0f1701c82c" style="stroke:#000000;stroke-width:0.8;"/>
      </defs>
      <g>
       <use style="stroke:#000000;stroke-width:0.8;" x="40.065625" xlink:href="#m0f1701c82c" y="45.04375"/>
      </g>
     </g>
     <g id="text_8">
      <!-- 0.00 -->
      <defs>
       <path d="M 10.6875 12.40625 
L 21 12.40625 
L 21 0 
L 10.6875 0 
z
" id="DejaVuSans-2e"/>
      </defs>
      <g transform="translate(10.8 48.842969)scale(0.1 -0.1)">
       <use xlink:href="#DejaVuSans-30"/>
       <use x="63.623047" xlink:href="#DejaVuSans-2e"/>
       <use x="95.410156" xlink:href="#DejaVuSans-30"/>
       <use x="159.033203" xlink:href="#DejaVuSans-30"/>
      </g>
     </g>
    </g>
    <g id="ytick_2">
     <g id="line2d_8">
      <g>
       <use style="stroke:#000000;stroke-width:0.8;" x="40.065625" xlink:href="#m0f1701c82c" y="28.622243"/>
      </g>
     </g>
     <g id="text_9">
      <!-- 0.25 -->
      <defs>
       <path d="M 10.796875 72.90625 
L 49.515625 72.90625 
L 49.515625 64.59375 
L 19.828125 64.59375 
L 19.828125 46.734375 
Q 21.96875 47.46875 24.109375 47.828125 
Q 26.265625 48.1875 28.421875 48.1875 
Q 40.625 48.1875 47.75 41.5 
Q 54.890625 34.8125 54.890625 23.390625 
Q 54.890625 11.625 47.5625 5.09375 
Q 40.234375 -1.421875 26.90625 -1.421875 
Q 22.3125 -1.421875 17.546875 -0.640625 
Q 12.796875 0.140625 7.71875 1.703125 
L 7.71875 11.625 
Q 12.109375 9.234375 16.796875 8.0625 
Q 21.484375 6.890625 26.703125 6.890625 
Q 35.15625 6.890625 40.078125 11.328125 
Q 45.015625 15.765625 45.015625 23.390625 
Q 45.015625 31 40.078125 35.4375 
Q 35.15625 39.890625 26.703125 39.890625 
Q 22.75 39.890625 18.8125 39.015625 
Q 14.890625 38.140625 10.796875 36.28125 
z
" id="DejaVuSans-35"/>
      </defs>
      <g transform="translate(10.8 32.421462)scale(0.1 -0.1)">
       <use xlink:href="#DejaVuSans-30"/>
       <use x="63.623047" xlink:href="#DejaVuSans-2e"/>
       <use x="95.410156" xlink:href="#DejaVuSans-32"/>
       <use x="159.033203" xlink:href="#DejaVuSans-35"/>
      </g>
     </g>
    </g>
   </g>
   <g id="line2d_9">
    <path clip-path="url(#pa951071deb)" d="M 56.276278 45.035088 
L 59.551158 45.024048 
L 62.826037 45.002495 
L 66.100917 44.964219 
L 69.375796 44.902576 
L 72.650676 44.81293 
L 75.925555 44.695909 
L 79.200435 44.559916 
L 82.475314 44.420702 
L 85.750194 44.296354 
L 89.025073 44.198212 
L 92.299953 44.121036 
L 95.574832 44.037686 
L 98.849712 43.903003 
L 102.124591 43.668066 
L 105.399471 43.30076 
L 108.67435 42.803947 
L 111.94923 42.221335 
L 115.224109 41.625408 
L 118.498988 41.090621 
L 121.773868 40.664049 
L 125.048747 40.348521 
L 128.323627 40.106754 
L 131.598506 39.882891 
L 134.873386 39.628542 
L 138.148265 39.320369 
L 141.423145 38.96421 
L 144.698024 38.589184 
L 147.972904 38.237886 
L 151.247783 37.955689 
L 154.522663 37.778392 
L 157.797542 37.717759 
L 161.072422 37.748559 
L 164.347301 37.804567 
L 167.622181 37.790168 
L 170.89706 37.607825 
L 174.17194 37.192611 
L 177.446819 36.539036 
L 180.721699 35.706712 
L 183.996578 34.800275 
L 187.271457 33.93085 
L 190.546337 33.174942 
L 193.821216 32.547857 
L 197.096096 32.002326 
L 200.370975 31.45222 
L 203.645855 30.810495 
L 206.920734 30.024438 
L 210.195614 29.09312 
L 213.470493 28.061517 
L 216.745373 26.997919 
L 220.020252 25.968799 
L 223.295132 25.023521 
L 226.570011 24.192377 
L 229.844891 23.492416 
L 233.11977 22.932462 
L 236.39465 22.512344 
L 239.669529 22.217592 
L 242.944409 22.015071 
L 246.219288 21.854983 
L 249.494168 21.681314 
L 252.769047 21.448468 
L 256.043926 21.138648 
L 259.318806 20.77368 
L 262.593685 20.416302 
L 265.868565 20.158904 
L 269.143444 20.10135 
L 272.418324 20.323192 
L 275.693203 20.858134 
L 278.968083 21.678877 
L 282.242962 22.697633 
L 285.517842 23.782587 
L 288.792721 24.785245 
L 292.067601 25.570483 
L 295.34248 26.041229 
L 298.61736 26.15249 
L 301.892239 25.913378 
L 305.167119 25.379146 
L 308.441998 24.637377 
L 311.716878 23.793235 
L 314.991757 22.958201 
L 318.266637 22.244836 
L 321.541516 21.766833 
L 324.816395 21.6398 
L 328.091275 21.976133 
L 331.366154 22.869005 
L 334.641034 24.366521 
L 337.915913 26.444656 
L 341.190793 28.99224 
L 344.465672 31.819055 
L 347.740552 34.689093 
L 351.015431 37.369604 
L 354.290311 39.678942 
L 357.56519 41.516836 
L 360.84007 42.868971 
L 364.114949 43.788789 
L 367.389829 44.367378 
L 370.664708 44.703861 
L 373.939588 44.884735 
L 377.214467 44.97458 
L 380.489347 45.015806 
" style="fill:none;stroke:#1f77b4;stroke-linecap:square;stroke-width:1.5;"/>
   </g>
   <g id="patch_26">
    <path d="M 40.065625 45.04375 
L 40.065625 14.3 
" style="fill:none;stroke:#000000;stroke-linecap:square;stroke-linejoin:miter;stroke-width:0.8;"/>
   </g>
   <g id="patch_27">
    <path d="M 396.7 45.04375 
L 396.7 14.3 
" style="fill:none;stroke:#000000;stroke-linecap:square;stroke-linejoin:miter;stroke-width:0.8;"/>
   </g>
   <g id="patch_28">
    <path d="M 40.065625 45.04375 
L 396.7 45.04375 
" style="fill:none;stroke:#000000;stroke-linecap:square;stroke-linejoin:miter;stroke-width:0.8;"/>
   </g>
   <g id="patch_29">
    <path d="M 40.065625 14.3 
L 396.7 14.3 
" style="fill:none;stroke:#000000;stroke-linecap:square;stroke-linejoin:miter;stroke-width:0.8;"/>
   </g>
  </g>
  <g id="axes_2">
   <g id="patch_30">
    <path d="M 40.065625 120.44375 
L 396.7 120.44375 
L 396.7 89.7 
L 40.065625 89.7 
z
" style="fill:#ffffff;"/>
   </g>
   <g id="patch_31">
    <path clip-path="url(#p7a988fcba7)" d="M 82.458561 120.44375 
L 90.454105 120.44375 
L 90.454105 91.163988 
L 82.458561 91.163988 
z
" style="fill:#1f77b4;opacity:0.4;"/>
   </g>
   <g id="patch_32">
    <path clip-path="url(#p7a988fcba7)" d="M 90.454105 120.44375 
L 98.449649 120.44375 
L 98.449649 120.44375 
L 90.454105 120.44375 
z
" style="fill:#1f77b4;opacity:0.4;"/>
   </g>
   <g id="patch_33">
    <path clip-path="url(#p7a988fcba7)" d="M 98.449649 120.44375 
L 106.445193 120.44375 
L 106.445193 120.44375 
L 98.449649 120.44375 
z
" style="fill:#1f77b4;opacity:0.4;"/>
   </g>
   <g id="patch_34">
    <path clip-path="url(#p7a988fcba7)" d="M 106.445193 120.44375 
L 114.440737 120.44375 
L 114.440737 94.531628 
L 106.445193 94.531628 
z
" style="fill:#1f77b4;opacity:0.4;"/>
   </g>
   <g id="patch_35">
    <path clip-path="url(#p7a988fcba7)" d="M 114.440737 120.44375 
L 122.436282 120.44375 
L 122.436282 120.44375 
L 114.440737 120.44375 
z
" style="fill:#1f77b4;opacity:0.4;"/>
   </g>
   <g id="patch_36">
    <path clip-path="url(#p7a988fcba7)" d="M 122.436282 120.44375 
L 130.431826 120.44375 
L 130.431826 95.56063 
L 122.436282 95.56063 
z
" style="fill:#1f77b4;opacity:0.4;"/>
   </g>
   <g id="patch_37">
    <path clip-path="url(#p7a988fcba7)" d="M 130.431826 120.44375 
L 138.42737 120.44375 
L 138.42737 98.08636 
L 130.431826 98.08636 
z
" style="fill:#1f77b4;opacity:0.4;"/>
   </g>
   <g id="patch_38">
    <path clip-path="url(#p7a988fcba7)" d="M 138.42737 120.44375 
L 146.422914 120.44375 
L 146.422914 102.202365 
L 138.42737 102.202365 
z
" style="fill:#1f77b4;opacity:0.4;"/>
   </g>
   <g id="patch_39">
    <path clip-path="url(#p7a988fcba7)" d="M 146.422914 120.44375 
L 154.418459 120.44375 
L 154.418459 102.108819 
L 146.422914 102.108819 
z
" style="fill:#1f77b4;opacity:0.4;"/>
   </g>
   <g id="patch_40">
    <path clip-path="url(#p7a988fcba7)" d="M 154.418459 120.44375 
L 162.414003 120.44375 
L 162.414003 93.970355 
L 154.418459 93.970355 
z
" style="fill:#1f77b4;opacity:0.4;"/>
   </g>
   <g id="patch_41">
    <path clip-path="url(#p7a988fcba7)" d="M 162.414003 120.44375 
L 170.409547 120.44375 
L 170.409547 98.366997 
L 162.414003 98.366997 
z
" style="fill:#1f77b4;opacity:0.4;"/>
   </g>
   <g id="patch_42">
    <path clip-path="url(#p7a988fcba7)" d="M 170.409547 120.44375 
L 178.405091 120.44375 
L 178.405091 93.409082 
L 170.409547 93.409082 
z
" style="fill:#1f77b4;opacity:0.4;"/>
   </g>
   <g id="patch_43">
    <path clip-path="url(#p7a988fcba7)" d="M 178.405091 120.44375 
L 186.400636 120.44375 
L 186.400636 100.050817 
L 178.405091 100.050817 
z
" style="fill:#1f77b4;opacity:0.4;"/>
   </g>
   <g id="patch_44">
    <path clip-path="url(#p7a988fcba7)" d="M 186.400636 120.44375 
L 194.39618 120.44375 
L 194.39618 100.237908 
L 186.400636 100.237908 
z
" style="fill:#1f77b4;opacity:0.4;"/>
   </g>
   <g id="patch_45">
    <path clip-path="url(#p7a988fcba7)" d="M 194.39618 120.44375 
L 202.391724 120.44375 
L 202.391724 100.892727 
L 194.39618 100.892727 
z
" style="fill:#1f77b4;opacity:0.4;"/>
   </g>
   <g id="patch_46">
    <path clip-path="url(#p7a988fcba7)" d="M 202.391724 120.44375 
L 210.387268 120.44375 
L 210.387268 104.260367 
L 202.391724 104.260367 
z
" style="fill:#1f77b4;opacity:0.4;"/>
   </g>
   <g id="patch_47">
    <path clip-path="url(#p7a988fcba7)" d="M 210.387268 120.44375 
L 218.382812 120.44375 
L 218.382812 108.282827 
L 210.387268 108.282827 
z
" style="fill:#1f77b4;opacity:0.4;"/>
   </g>
   <g id="patch_48">
    <path clip-path="url(#p7a988fcba7)" d="M 218.382812 120.44375 
L 226.378357 120.44375 
L 226.378357 110.715011 
L 218.382812 110.715011 
z
" style="fill:#1f77b4;opacity:0.4;"/>
   </g>
   <g id="patch_49">
    <path clip-path="url(#p7a988fcba7)" d="M 226.378357 120.44375 
L 234.373901 120.44375 
L 234.373901 111.463376 
L 226.378357 111.463376 
z
" style="fill:#1f77b4;opacity:0.4;"/>
   </g>
   <g id="patch_50">
    <path clip-path="url(#p7a988fcba7)" d="M 234.373901 120.44375 
L 242.369445 120.44375 
L 242.369445 114.363288 
L 234.373901 114.363288 
z
" style="fill:#1f77b4;opacity:0.4;"/>
   </g>
   <g id="patch_51">
    <path clip-path="url(#p7a988fcba7)" d="M 242.369445 120.44375 
L 250.364989 120.44375 
L 250.364989 116.2342 
L 242.369445 116.2342 
z
" style="fill:#1f77b4;opacity:0.4;"/>
   </g>
   <g id="patch_52">
    <path clip-path="url(#p7a988fcba7)" d="M 250.364989 120.44375 
L 258.360534 120.44375 
L 258.360534 117.169655 
L 250.364989 117.169655 
z
" style="fill:#1f77b4;opacity:0.4;"/>
   </g>
   <g id="patch_53">
    <path clip-path="url(#p7a988fcba7)" d="M 258.360534 120.44375 
L 266.356078 120.44375 
L 266.356078 117.824474 
L 258.360534 117.824474 
z
" style="fill:#1f77b4;opacity:0.4;"/>
   </g>
   <g id="patch_54">
    <path clip-path="url(#p7a988fcba7)" d="M 266.356078 120.44375 
L 274.351622 120.44375 
L 274.351622 119.695385 
L 266.356078 119.695385 
z
" style="fill:#1f77b4;opacity:0.4;"/>
   </g>
   <g id="patch_55">
    <path clip-path="url(#p7a988fcba7)" d="M 274.351622 120.44375 
L 282.347166 120.44375 
L 282.347166 119.788931 
L 274.351622 119.788931 
z
" style="fill:#1f77b4;opacity:0.4;"/>
   </g>
   <g id="patch_56">
    <path clip-path="url(#p7a988fcba7)" d="M 282.347166 120.44375 
L 290.342711 120.44375 
L 290.342711 119.882477 
L 282.347166 119.882477 
z
" style="fill:#1f77b4;opacity:0.4;"/>
   </g>
   <g id="patch_57">
    <path clip-path="url(#p7a988fcba7)" d="M 290.342711 120.44375 
L 298.338255 120.44375 
L 298.338255 120.069568 
L 290.342711 120.069568 
z
" style="fill:#1f77b4;opacity:0.4;"/>
   </g>
   <g id="patch_58">
    <path clip-path="url(#p7a988fcba7)" d="M 298.338255 120.44375 
L 306.333799 120.44375 
L 306.333799 120.44375 
L 298.338255 120.44375 
z
" style="fill:#1f77b4;opacity:0.4;"/>
   </g>
   <g id="patch_59">
    <path clip-path="url(#p7a988fcba7)" d="M 306.333799 120.44375 
L 314.329343 120.44375 
L 314.329343 120.350204 
L 306.333799 120.350204 
z
" style="fill:#1f77b4;opacity:0.4;"/>
   </g>
   <g id="patch_60">
    <path clip-path="url(#p7a988fcba7)" d="M 314.329343 120.44375 
L 322.324888 120.44375 
L 322.324888 120.350204 
L 314.329343 120.350204 
z
" style="fill:#1f77b4;opacity:0.4;"/>
   </g>
   <g id="patch_61">
    <path clip-path="url(#p7a988fcba7)" d="M 322.324888 120.44375 
L 330.320432 120.44375 
L 330.320432 120.44375 
L 322.324888 120.44375 
z
" style="fill:#1f77b4;opacity:0.4;"/>
   </g>
   <g id="patch_62">
    <path clip-path="url(#p7a988fcba7)" d="M 330.320432 120.44375 
L 338.315976 120.44375 
L 338.315976 120.350204 
L 330.320432 120.350204 
z
" style="fill:#1f77b4;opacity:0.4;"/>
   </g>
   <g id="patch_63">
    <path clip-path="url(#p7a988fcba7)" d="M 338.315976 120.44375 
L 346.31152 120.44375 
L 346.31152 120.350204 
L 338.315976 120.350204 
z
" style="fill:#1f77b4;opacity:0.4;"/>
   </g>
   <g id="patch_64">
    <path clip-path="url(#p7a988fcba7)" d="M 346.31152 120.44375 
L 354.307064 120.44375 
L 354.307064 120.350204 
L 346.31152 120.350204 
z
" style="fill:#1f77b4;opacity:0.4;"/>
   </g>
   <g id="matplotlib.axis_3">
    <g id="xtick_7">
     <g id="line2d_10">
      <g>
       <use style="stroke:#000000;stroke-width:0.8;" x="73.222184" xlink:href="#mc0b2b11baf" y="120.44375"/>
      </g>
     </g>
     <g id="text_10">
      <!-- −2 -->
      <g transform="translate(65.85109 135.042187)scale(0.1 -0.1)">
       <use xlink:href="#DejaVuSans-2212"/>
       <use x="83.789062" xlink:href="#DejaVuSans-32"/>
      </g>
     </g>
    </g>
    <g id="xtick_8">
     <g id="line2d_11">
      <g>
       <use style="stroke:#000000;stroke-width:0.8;" x="118.218616" xlink:href="#mc0b2b11baf" y="120.44375"/>
      </g>
     </g>
     <g id="text_11">
      <!-- −1 -->
      <g transform="translate(110.847522 135.042187)scale(0.1 -0.1)">
       <use xlink:href="#DejaVuSans-2212"/>
       <use x="83.789062" xlink:href="#DejaVuSans-31"/>
      </g>
     </g>
    </g>
    <g id="xtick_9">
     <g id="line2d_12">
      <g>
       <use style="stroke:#000000;stroke-width:0.8;" x="163.215048" xlink:href="#mc0b2b11baf" y="120.44375"/>
      </g>
     </g>
     <g id="text_12">
      <!-- 0 -->
      <g transform="translate(160.033798 135.042187)scale(0.1 -0.1)">
       <use xlink:href="#DejaVuSans-30"/>
      </g>
     </g>
    </g>
    <g id="xtick_10">
     <g id="line2d_13">
      <g>
       <use style="stroke:#000000;stroke-width:0.8;" x="208.21148" xlink:href="#mc0b2b11baf" y="120.44375"/>
      </g>
     </g>
     <g id="text_13">
      <!-- 1 -->
      <g transform="translate(205.03023 135.042187)scale(0.1 -0.1)">
       <use xlink:href="#DejaVuSans-31"/>
      </g>
     </g>
    </g>
    <g id="xtick_11">
     <g id="line2d_14">
      <g>
       <use style="stroke:#000000;stroke-width:0.8;" x="253.207912" xlink:href="#mc0b2b11baf" y="120.44375"/>
      </g>
     </g>
     <g id="text_14">
      <!-- 2 -->
      <g transform="translate(250.026662 135.042187)scale(0.1 -0.1)">
       <use xlink:href="#DejaVuSans-32"/>
      </g>
     </g>
    </g>
    <g id="xtick_12">
     <g id="line2d_15">
      <g>
       <use style="stroke:#000000;stroke-width:0.8;" x="298.204344" xlink:href="#mc0b2b11baf" y="120.44375"/>
      </g>
     </g>
     <g id="text_15">
      <!-- 3 -->
      <g transform="translate(295.023094 135.042187)scale(0.1 -0.1)">
       <use xlink:href="#DejaVuSans-33"/>
      </g>
     </g>
    </g>
    <g id="xtick_13">
     <g id="line2d_16">
      <g>
       <use style="stroke:#000000;stroke-width:0.8;" x="343.200776" xlink:href="#mc0b2b11baf" y="120.44375"/>
      </g>
     </g>
     <g id="text_16">
      <!-- 4 -->
      <defs>
       <path d="M 37.796875 64.3125 
L 12.890625 25.390625 
L 37.796875 25.390625 
z
M 35.203125 72.90625 
L 47.609375 72.90625 
L 47.609375 25.390625 
L 58.015625 25.390625 
L 58.015625 17.1875 
L 47.609375 17.1875 
L 47.609375 0 
L 37.796875 0 
L 37.796875 17.1875 
L 4.890625 17.1875 
L 4.890625 26.703125 
z
" id="DejaVuSans-34"/>
      </defs>
      <g transform="translate(340.019526 135.042187)scale(0.1 -0.1)">
       <use xlink:href="#DejaVuSans-34"/>
      </g>
     </g>
    </g>
    <g id="xtick_14">
     <g id="line2d_17">
      <g>
       <use style="stroke:#000000;stroke-width:0.8;" x="388.197208" xlink:href="#mc0b2b11baf" y="120.44375"/>
      </g>
     </g>
     <g id="text_17">
      <!-- 5 -->
      <g transform="translate(385.015958 135.042187)scale(0.1 -0.1)">
       <use xlink:href="#DejaVuSans-35"/>
      </g>
     </g>
    </g>
    <g id="text_18">
     <!-- Frequency -->
     <defs>
      <path d="M 9.8125 72.90625 
L 51.703125 72.90625 
L 51.703125 64.59375 
L 19.671875 64.59375 
L 19.671875 43.109375 
L 48.578125 43.109375 
L 48.578125 34.8125 
L 19.671875 34.8125 
L 19.671875 0 
L 9.8125 0 
z
" id="DejaVuSans-46"/>
      <path d="M 41.109375 46.296875 
Q 39.59375 47.171875 37.8125 47.578125 
Q 36.03125 48 33.890625 48 
Q 26.265625 48 22.1875 43.046875 
Q 18.109375 38.09375 18.109375 28.8125 
L 18.109375 0 
L 9.078125 0 
L 9.078125 54.6875 
L 18.109375 54.6875 
L 18.109375 46.1875 
Q 20.953125 51.171875 25.484375 53.578125 
Q 30.03125 56 36.53125 56 
Q 37.453125 56 38.578125 55.875 
Q 39.703125 55.765625 41.0625 55.515625 
z
" id="DejaVuSans-72"/>
      <path d="M 14.796875 27.296875 
Q 14.796875 17.390625 18.875 11.75 
Q 22.953125 6.109375 30.078125 6.109375 
Q 37.203125 6.109375 41.296875 11.75 
Q 45.40625 17.390625 45.40625 27.296875 
Q 45.40625 37.203125 41.296875 42.84375 
Q 37.203125 48.484375 30.078125 48.484375 
Q 22.953125 48.484375 18.875 42.84375 
Q 14.796875 37.203125 14.796875 27.296875 
z
M 45.40625 8.203125 
Q 42.578125 3.328125 38.25 0.953125 
Q 33.9375 -1.421875 27.875 -1.421875 
Q 17.96875 -1.421875 11.734375 6.484375 
Q 5.515625 14.40625 5.515625 27.296875 
Q 5.515625 40.1875 11.734375 48.09375 
Q 17.96875 56 27.875 56 
Q 33.9375 56 38.25 53.625 
Q 42.578125 51.265625 45.40625 46.390625 
L 45.40625 54.6875 
L 54.390625 54.6875 
L 54.390625 -20.796875 
L 45.40625 -20.796875 
z
" id="DejaVuSans-71"/>
      <path d="M 8.5 21.578125 
L 8.5 54.6875 
L 17.484375 54.6875 
L 17.484375 21.921875 
Q 17.484375 14.15625 20.5 10.265625 
Q 23.53125 6.390625 29.59375 6.390625 
Q 36.859375 6.390625 41.078125 11.03125 
Q 45.3125 15.671875 45.3125 23.6875 
L 45.3125 54.6875 
L 54.296875 54.6875 
L 54.296875 0 
L 45.3125 0 
L 45.3125 8.40625 
Q 42.046875 3.421875 37.71875 1 
Q 33.40625 -1.421875 27.6875 -1.421875 
Q 18.265625 -1.421875 13.375 4.4375 
Q 8.5 10.296875 8.5 21.578125 
z
M 31.109375 56 
z
" id="DejaVuSans-75"/>
     </defs>
     <g transform="translate(192.085156 148.720312)scale(0.1 -0.1)">
      <use xlink:href="#DejaVuSans-46"/>
      <use x="57.410156" xlink:href="#DejaVuSans-72"/>
      <use x="98.492188" xlink:href="#DejaVuSans-65"/>
      <use x="160.015625" xlink:href="#DejaVuSans-71"/>
      <use x="223.492188" xlink:href="#DejaVuSans-75"/>
      <use x="286.871094" xlink:href="#DejaVuSans-65"/>
      <use x="348.394531" xlink:href="#DejaVuSans-6e"/>
      <use x="411.773438" xlink:href="#DejaVuSans-63"/>
      <use x="466.753906" xlink:href="#DejaVuSans-79"/>
     </g>
    </g>
   </g>
   <g id="matplotlib.axis_4">
    <g id="ytick_3">
     <g id="line2d_18">
      <g>
       <use style="stroke:#000000;stroke-width:0.8;" x="40.065625" xlink:href="#m0f1701c82c" y="120.44375"/>
      </g>
     </g>
     <g id="text_19">
      <!-- 0.0 -->
      <g transform="translate(17.1625 124.242969)scale(0.1 -0.1)">
       <use xlink:href="#DejaVuSans-30"/>
       <use x="63.623047" xlink:href="#DejaVuSans-2e"/>
       <use x="95.410156" xlink:href="#DejaVuSans-30"/>
      </g>
     </g>
    </g>
    <g id="ytick_4">
     <g id="line2d_19">
      <g>
       <use style="stroke:#000000;stroke-width:0.8;" x="40.065625" xlink:href="#m0f1701c82c" y="90.166088"/>
      </g>
     </g>
     <g id="text_20">
      <!-- 0.5 -->
      <g transform="translate(17.1625 93.965307)scale(0.1 -0.1)">
       <use xlink:href="#DejaVuSans-30"/>
       <use x="63.623047" xlink:href="#DejaVuSans-2e"/>
       <use x="95.410156" xlink:href="#DejaVuSans-35"/>
      </g>
     </g>
    </g>
   </g>
   <g id="line2d_20">
    <path clip-path="url(#p7a988fcba7)" d="M 56.276278 120.324738 
L 59.551158 120.101939 
L 62.826037 119.590947 
L 66.100917 118.595391 
L 69.375796 116.963453 
L 72.650676 114.750083 
L 75.925555 112.347657 
L 79.200435 110.42634 
L 82.475314 109.621917 
L 85.750194 110.133938 
L 89.025073 111.535577 
L 92.299953 112.970045 
L 95.574832 113.61551 
L 98.849712 113.112412 
L 102.124591 111.695809 
L 105.399471 109.974323 
L 108.67435 108.513099 
L 111.94923 107.508309 
L 115.224109 106.777036 
L 118.498988 106.024071 
L 121.773868 105.112409 
L 125.048747 104.110814 
L 128.323627 103.154407 
L 131.598506 102.314014 
L 134.873386 101.582798 
L 138.148265 100.931548 
L 141.423145 100.348799 
L 144.698024 99.842197 
L 147.972904 99.420689 
L 151.247783 99.078667 
L 154.522663 98.794431 
L 157.797542 98.54337 
L 161.072422 98.312038 
L 164.347301 98.100814 
L 167.622181 97.920665 
L 170.89706 97.795951 
L 174.17194 97.769216 
L 177.446819 97.89204 
L 180.721699 98.199993 
L 183.996578 98.69153 
L 187.271457 99.330005 
L 190.546337 100.066293 
L 193.821216 100.863759 
L 197.096096 101.71082 
L 200.370975 102.617884 
L 203.645855 103.602617 
L 206.920734 104.67101 
L 210.195614 105.804555 
L 213.470493 106.962061 
L 216.745373 108.095487 
L 220.020252 109.169047 
L 223.295132 110.169319 
L 226.570011 111.101981 
L 229.844891 111.980317 
L 233.11977 112.814274 
L 236.39465 113.605666 
L 239.669529 114.349651 
L 242.944409 115.039469 
L 246.219288 115.671538 
L 249.494168 116.248965 
L 252.769047 116.781629 
L 256.043926 117.282016 
L 259.318806 117.758487 
L 262.593685 118.209843 
L 265.868565 118.624784 
L 269.143444 118.987285 
L 272.418324 119.285337 
L 275.693203 119.517713 
L 278.968083 119.694277 
L 282.242962 119.830121 
L 285.517842 119.938479 
L 288.792721 120.027384 
L 292.067601 120.10087 
L 295.34248 120.161684 
L 298.61736 120.212425 
L 301.892239 120.25498 
L 305.167119 120.290212 
L 308.441998 120.318841 
L 311.716878 120.34228 
L 314.991757 120.362092 
L 318.266637 120.378592 
L 321.541516 120.390366 
L 324.816395 120.395504 
L 328.091275 120.393558 
L 331.366154 120.386586 
L 334.641034 120.378453 
L 337.915913 120.372906 
L 341.190793 120.371818 
L 344.465672 120.374814 
L 347.740552 120.380372 
L 351.015431 120.387312 
L 354.290311 120.395386 
L 357.56519 120.404677 
L 360.84007 120.414717 
L 364.114949 120.42432 
L 367.389829 120.432207 
L 370.664708 120.437718 
L 373.939588 120.440993 
L 377.214467 120.44265 
L 380.489347 120.443368 
" style="fill:none;stroke:#1f77b4;stroke-linecap:square;stroke-width:1.5;"/>
   </g>
   <g id="patch_65">
    <path d="M 40.065625 120.44375 
L 40.065625 89.7 
" style="fill:none;stroke:#000000;stroke-linecap:square;stroke-linejoin:miter;stroke-width:0.8;"/>
   </g>
   <g id="patch_66">
    <path d="M 396.7 120.44375 
L 396.7 89.7 
" style="fill:none;stroke:#000000;stroke-linecap:square;stroke-linejoin:miter;stroke-width:0.8;"/>
   </g>
   <g id="patch_67">
    <path d="M 40.065625 120.44375 
L 396.7 120.44375 
" style="fill:none;stroke:#000000;stroke-linecap:square;stroke-linejoin:miter;stroke-width:0.8;"/>
   </g>
   <g id="patch_68">
    <path d="M 40.065625 89.7 
L 396.7 89.7 
" style="fill:none;stroke:#000000;stroke-linecap:square;stroke-linejoin:miter;stroke-width:0.8;"/>
   </g>
  </g>
  <g id="axes_3">
   <g id="patch_69">
    <path d="M 40.065625 195.84375 
L 396.7 195.84375 
L 396.7 165.1 
L 40.065625 165.1 
z
" style="fill:#ffffff;"/>
   </g>
   <g id="patch_70">
    <path clip-path="url(#p6518c5bac1)" d="M 75.691315 195.84375 
L 81.398975 195.84375 
L 81.398975 195.73242 
L 75.691315 195.73242 
z
" style="fill:#1f77b4;opacity:0.4;"/>
   </g>
   <g id="patch_71">
    <path clip-path="url(#p6518c5bac1)" d="M 81.398975 195.84375 
L 87.106635 195.84375 
L 87.106635 195.73242 
L 81.398975 195.73242 
z
" style="fill:#1f77b4;opacity:0.4;"/>
   </g>
   <g id="patch_72">
    <path clip-path="url(#p6518c5bac1)" d="M 87.106635 195.84375 
L 92.814295 195.84375 
L 92.814295 195.62109 
L 87.106635 195.62109 
z
" style="fill:#1f77b4;opacity:0.4;"/>
   </g>
   <g id="patch_73">
    <path clip-path="url(#p6518c5bac1)" d="M 92.814295 195.84375 
L 98.521955 195.84375 
L 98.521955 195.84375 
L 92.814295 195.84375 
z
" style="fill:#1f77b4;opacity:0.4;"/>
   </g>
   <g id="patch_74">
    <path clip-path="url(#p6518c5bac1)" d="M 98.521955 195.84375 
L 104.229615 195.84375 
L 104.229615 195.50976 
L 98.521955 195.50976 
z
" style="fill:#1f77b4;opacity:0.4;"/>
   </g>
   <g id="patch_75">
    <path clip-path="url(#p6518c5bac1)" d="M 104.229615 195.84375 
L 109.937275 195.84375 
L 109.937275 195.84375 
L 104.229615 195.84375 
z
" style="fill:#1f77b4;opacity:0.4;"/>
   </g>
   <g id="patch_76">
    <path clip-path="url(#p6518c5bac1)" d="M 109.937275 195.84375 
L 115.644935 195.84375 
L 115.644935 195.287101 
L 109.937275 195.287101 
z
" style="fill:#1f77b4;opacity:0.4;"/>
   </g>
   <g id="patch_77">
    <path clip-path="url(#p6518c5bac1)" d="M 115.644935 195.84375 
L 121.352594 195.84375 
L 121.352594 195.50976 
L 115.644935 195.50976 
z
" style="fill:#1f77b4;opacity:0.4;"/>
   </g>
   <g id="patch_78">
    <path clip-path="url(#p6518c5bac1)" d="M 121.352594 195.84375 
L 127.060254 195.84375 
L 127.060254 194.953111 
L 121.352594 194.953111 
z
" style="fill:#1f77b4;opacity:0.4;"/>
   </g>
   <g id="patch_79">
    <path clip-path="url(#p6518c5bac1)" d="M 127.060254 195.84375 
L 132.767914 195.84375 
L 132.767914 194.841781 
L 127.060254 194.841781 
z
" style="fill:#1f77b4;opacity:0.4;"/>
   </g>
   <g id="patch_80">
    <path clip-path="url(#p6518c5bac1)" d="M 132.767914 195.84375 
L 138.475574 195.84375 
L 138.475574 194.841781 
L 132.767914 194.841781 
z
" style="fill:#1f77b4;opacity:0.4;"/>
   </g>
   <g id="patch_81">
    <path clip-path="url(#p6518c5bac1)" d="M 138.475574 195.84375 
L 144.183234 195.84375 
L 144.183234 194.173802 
L 138.475574 194.173802 
z
" style="fill:#1f77b4;opacity:0.4;"/>
   </g>
   <g id="patch_82">
    <path clip-path="url(#p6518c5bac1)" d="M 144.183234 195.84375 
L 149.890894 195.84375 
L 149.890894 191.724544 
L 144.183234 191.724544 
z
" style="fill:#1f77b4;opacity:0.4;"/>
   </g>
   <g id="patch_83">
    <path clip-path="url(#p6518c5bac1)" d="M 149.890894 195.84375 
L 155.598554 195.84375 
L 155.598554 189.720606 
L 149.890894 189.720606 
z
" style="fill:#1f77b4;opacity:0.4;"/>
   </g>
   <g id="patch_84">
    <path clip-path="url(#p6518c5bac1)" d="M 155.598554 195.84375 
L 161.306214 195.84375 
L 161.306214 187.494008 
L 155.598554 187.494008 
z
" style="fill:#1f77b4;opacity:0.4;"/>
   </g>
   <g id="patch_85">
    <path clip-path="url(#p6518c5bac1)" d="M 161.306214 195.84375 
L 167.013874 195.84375 
L 167.013874 186.269379 
L 161.306214 186.269379 
z
" style="fill:#1f77b4;opacity:0.4;"/>
   </g>
   <g id="patch_86">
    <path clip-path="url(#p6518c5bac1)" d="M 167.013874 195.84375 
L 172.721533 195.84375 
L 172.721533 185.71273 
L 167.013874 185.71273 
z
" style="fill:#1f77b4;opacity:0.4;"/>
   </g>
   <g id="patch_87">
    <path clip-path="url(#p6518c5bac1)" d="M 172.721533 195.84375 
L 178.429193 195.84375 
L 178.429193 179.700915 
L 172.721533 179.700915 
z
" style="fill:#1f77b4;opacity:0.4;"/>
   </g>
   <g id="patch_88">
    <path clip-path="url(#p6518c5bac1)" d="M 178.429193 195.84375 
L 184.136853 195.84375 
L 184.136853 178.587617 
L 178.429193 178.587617 
z
" style="fill:#1f77b4;opacity:0.4;"/>
   </g>
   <g id="patch_89">
    <path clip-path="url(#p6518c5bac1)" d="M 184.136853 195.84375 
L 189.844513 195.84375 
L 189.844513 173.911761 
L 184.136853 173.911761 
z
" style="fill:#1f77b4;opacity:0.4;"/>
   </g>
   <g id="patch_90">
    <path clip-path="url(#p6518c5bac1)" d="M 189.844513 195.84375 
L 195.552173 195.84375 
L 195.552173 169.903885 
L 189.844513 169.903885 
z
" style="fill:#1f77b4;opacity:0.4;"/>
   </g>
   <g id="patch_91">
    <path clip-path="url(#p6518c5bac1)" d="M 195.552173 195.84375 
L 201.259833 195.84375 
L 201.259833 169.458565 
L 195.552173 169.458565 
z
" style="fill:#1f77b4;opacity:0.4;"/>
   </g>
   <g id="patch_92">
    <path clip-path="url(#p6518c5bac1)" d="M 201.259833 195.84375 
L 206.967493 195.84375 
L 206.967493 167.120638 
L 201.259833 167.120638 
z
" style="fill:#1f77b4;opacity:0.4;"/>
   </g>
   <g id="patch_93">
    <path clip-path="url(#p6518c5bac1)" d="M 206.967493 195.84375 
L 212.675153 195.84375 
L 212.675153 170.683194 
L 206.967493 170.683194 
z
" style="fill:#1f77b4;opacity:0.4;"/>
   </g>
   <g id="patch_94">
    <path clip-path="url(#p6518c5bac1)" d="M 212.675153 195.84375 
L 218.382812 195.84375 
L 218.382812 169.458565 
L 212.675153 169.458565 
z
" style="fill:#1f77b4;opacity:0.4;"/>
   </g>
   <g id="patch_95">
    <path clip-path="url(#p6518c5bac1)" d="M 218.382812 195.84375 
L 224.090472 195.84375 
L 224.090472 166.563988 
L 218.382812 166.563988 
z
" style="fill:#1f77b4;opacity:0.4;"/>
   </g>
   <g id="patch_96">
    <path clip-path="url(#p6518c5bac1)" d="M 224.090472 195.84375 
L 229.798132 195.84375 
L 229.798132 171.239844 
L 224.090472 171.239844 
z
" style="fill:#1f77b4;opacity:0.4;"/>
   </g>
   <g id="patch_97">
    <path clip-path="url(#p6518c5bac1)" d="M 229.798132 195.84375 
L 235.505792 195.84375 
L 235.505792 173.577771 
L 229.798132 173.577771 
z
" style="fill:#1f77b4;opacity:0.4;"/>
   </g>
   <g id="patch_98">
    <path clip-path="url(#p6518c5bac1)" d="M 235.505792 195.84375 
L 241.213452 195.84375 
L 241.213452 176.249689 
L 235.505792 176.249689 
z
" style="fill:#1f77b4;opacity:0.4;"/>
   </g>
   <g id="patch_99">
    <path clip-path="url(#p6518c5bac1)" d="M 241.213452 195.84375 
L 246.921112 195.84375 
L 246.921112 176.806338 
L 241.213452 176.806338 
z
" style="fill:#1f77b4;opacity:0.4;"/>
   </g>
   <g id="patch_100">
    <path clip-path="url(#p6518c5bac1)" d="M 246.921112 195.84375 
L 252.628772 195.84375 
L 252.628772 181.370864 
L 246.921112 181.370864 
z
" style="fill:#1f77b4;opacity:0.4;"/>
   </g>
   <g id="patch_101">
    <path clip-path="url(#p6518c5bac1)" d="M 252.628772 195.84375 
L 258.336432 195.84375 
L 258.336432 183.040812 
L 252.628772 183.040812 
z
" style="fill:#1f77b4;opacity:0.4;"/>
   </g>
   <g id="patch_102">
    <path clip-path="url(#p6518c5bac1)" d="M 258.336432 195.84375 
L 264.044092 195.84375 
L 264.044092 187.048688 
L 258.336432 187.048688 
z
" style="fill:#1f77b4;opacity:0.4;"/>
   </g>
   <g id="patch_103">
    <path clip-path="url(#p6518c5bac1)" d="M 264.044092 195.84375 
L 269.751751 195.84375 
L 269.751751 189.275286 
L 264.044092 189.275286 
z
" style="fill:#1f77b4;opacity:0.4;"/>
   </g>
   <g id="patch_104">
    <path clip-path="url(#p6518c5bac1)" d="M 269.751751 195.84375 
L 275.459411 195.84375 
L 275.459411 191.947204 
L 269.751751 191.947204 
z
" style="fill:#1f77b4;opacity:0.4;"/>
   </g>
   <g id="patch_105">
    <path clip-path="url(#p6518c5bac1)" d="M 275.459411 195.84375 
L 281.167071 195.84375 
L 281.167071 192.503853 
L 275.459411 192.503853 
z
" style="fill:#1f77b4;opacity:0.4;"/>
   </g>
   <g id="patch_106">
    <path clip-path="url(#p6518c5bac1)" d="M 281.167071 195.84375 
L 286.874731 195.84375 
L 286.874731 193.283162 
L 281.167071 193.283162 
z
" style="fill:#1f77b4;opacity:0.4;"/>
   </g>
   <g id="patch_107">
    <path clip-path="url(#p6518c5bac1)" d="M 286.874731 195.84375 
L 292.582391 195.84375 
L 292.582391 194.285131 
L 286.874731 194.285131 
z
" style="fill:#1f77b4;opacity:0.4;"/>
   </g>
   <g id="patch_108">
    <path clip-path="url(#p6518c5bac1)" d="M 292.582391 195.84375 
L 298.290051 195.84375 
L 298.290051 194.841781 
L 292.582391 194.841781 
z
" style="fill:#1f77b4;opacity:0.4;"/>
   </g>
   <g id="patch_109">
    <path clip-path="url(#p6518c5bac1)" d="M 298.290051 195.84375 
L 303.997711 195.84375 
L 303.997711 195.287101 
L 298.290051 195.287101 
z
" style="fill:#1f77b4;opacity:0.4;"/>
   </g>
   <g id="patch_110">
    <path clip-path="url(#p6518c5bac1)" d="M 303.997711 195.84375 
L 309.705371 195.84375 
L 309.705371 195.50976 
L 303.997711 195.50976 
z
" style="fill:#1f77b4;opacity:0.4;"/>
   </g>
   <g id="patch_111">
    <path clip-path="url(#p6518c5bac1)" d="M 309.705371 195.84375 
L 315.413031 195.84375 
L 315.413031 195.287101 
L 309.705371 195.287101 
z
" style="fill:#1f77b4;opacity:0.4;"/>
   </g>
   <g id="patch_112">
    <path clip-path="url(#p6518c5bac1)" d="M 315.413031 195.84375 
L 321.12069 195.84375 
L 321.12069 195.287101 
L 315.413031 195.287101 
z
" style="fill:#1f77b4;opacity:0.4;"/>
   </g>
   <g id="patch_113">
    <path clip-path="url(#p6518c5bac1)" d="M 321.12069 195.84375 
L 326.82835 195.84375 
L 326.82835 195.39843 
L 321.12069 195.39843 
z
" style="fill:#1f77b4;opacity:0.4;"/>
   </g>
   <g id="patch_114">
    <path clip-path="url(#p6518c5bac1)" d="M 326.82835 195.84375 
L 332.53601 195.84375 
L 332.53601 195.287101 
L 326.82835 195.287101 
z
" style="fill:#1f77b4;opacity:0.4;"/>
   </g>
   <g id="patch_115">
    <path clip-path="url(#p6518c5bac1)" d="M 332.53601 195.84375 
L 338.24367 195.84375 
L 338.24367 195.73242 
L 332.53601 195.73242 
z
" style="fill:#1f77b4;opacity:0.4;"/>
   </g>
   <g id="patch_116">
    <path clip-path="url(#p6518c5bac1)" d="M 338.24367 195.84375 
L 343.95133 195.84375 
L 343.95133 195.84375 
L 338.24367 195.84375 
z
" style="fill:#1f77b4;opacity:0.4;"/>
   </g>
   <g id="patch_117">
    <path clip-path="url(#p6518c5bac1)" d="M 343.95133 195.84375 
L 349.65899 195.84375 
L 349.65899 195.84375 
L 343.95133 195.84375 
z
" style="fill:#1f77b4;opacity:0.4;"/>
   </g>
   <g id="patch_118">
    <path clip-path="url(#p6518c5bac1)" d="M 349.65899 195.84375 
L 355.36665 195.84375 
L 355.36665 195.73242 
L 349.65899 195.73242 
z
" style="fill:#1f77b4;opacity:0.4;"/>
   </g>
   <g id="patch_119">
    <path clip-path="url(#p6518c5bac1)" d="M 355.36665 195.84375 
L 361.07431 195.84375 
L 361.07431 195.73242 
L 355.36665 195.73242 
z
" style="fill:#1f77b4;opacity:0.4;"/>
   </g>
   <g id="matplotlib.axis_5">
    <g id="xtick_15">
     <g id="line2d_21">
      <g>
       <use style="stroke:#000000;stroke-width:0.8;" x="78.812731" xlink:href="#mc0b2b11baf" y="195.84375"/>
      </g>
     </g>
     <g id="text_21">
      <!-- −4 -->
      <g transform="translate(71.441638 210.442187)scale(0.1 -0.1)">
       <use xlink:href="#DejaVuSans-2212"/>
       <use x="83.789062" xlink:href="#DejaVuSans-34"/>
      </g>
     </g>
    </g>
    <g id="xtick_16">
     <g id="line2d_22">
      <g>
       <use style="stroke:#000000;stroke-width:0.8;" x="145.545447" xlink:href="#mc0b2b11baf" y="195.84375"/>
      </g>
     </g>
     <g id="text_22">
      <!-- −2 -->
      <g transform="translate(138.174353 210.442187)scale(0.1 -0.1)">
       <use xlink:href="#DejaVuSans-2212"/>
       <use x="83.789062" xlink:href="#DejaVuSans-32"/>
      </g>
     </g>
    </g>
    <g id="xtick_17">
     <g id="line2d_23">
      <g>
       <use style="stroke:#000000;stroke-width:0.8;" x="212.278162" xlink:href="#mc0b2b11baf" y="195.84375"/>
      </g>
     </g>
     <g id="text_23">
      <!-- 0 -->
      <g transform="translate(209.096912 210.442187)scale(0.1 -0.1)">
       <use xlink:href="#DejaVuSans-30"/>
      </g>
     </g>
    </g>
    <g id="xtick_18">
     <g id="line2d_24">
      <g>
       <use style="stroke:#000000;stroke-width:0.8;" x="279.010877" xlink:href="#mc0b2b11baf" y="195.84375"/>
      </g>
     </g>
     <g id="text_24">
      <!-- 2 -->
      <g transform="translate(275.829627 210.442187)scale(0.1 -0.1)">
       <use xlink:href="#DejaVuSans-32"/>
      </g>
     </g>
    </g>
    <g id="xtick_19">
     <g id="line2d_25">
      <g>
       <use style="stroke:#000000;stroke-width:0.8;" x="345.743592" xlink:href="#mc0b2b11baf" y="195.84375"/>
      </g>
     </g>
     <g id="text_25">
      <!-- 4 -->
      <g transform="translate(342.562342 210.442187)scale(0.1 -0.1)">
       <use xlink:href="#DejaVuSans-34"/>
      </g>
     </g>
    </g>
    <g id="text_26">
     <!-- MonetaryValue -->
     <defs>
      <path d="M 9.8125 72.90625 
L 24.515625 72.90625 
L 43.109375 23.296875 
L 61.8125 72.90625 
L 76.515625 72.90625 
L 76.515625 0 
L 66.890625 0 
L 66.890625 64.015625 
L 48.09375 14.015625 
L 38.1875 14.015625 
L 19.390625 64.015625 
L 19.390625 0 
L 9.8125 0 
z
" id="DejaVuSans-4d"/>
      <path d="M 30.609375 48.390625 
Q 23.390625 48.390625 19.1875 42.75 
Q 14.984375 37.109375 14.984375 27.296875 
Q 14.984375 17.484375 19.15625 11.84375 
Q 23.34375 6.203125 30.609375 6.203125 
Q 37.796875 6.203125 41.984375 11.859375 
Q 46.1875 17.53125 46.1875 27.296875 
Q 46.1875 37.015625 41.984375 42.703125 
Q 37.796875 48.390625 30.609375 48.390625 
z
M 30.609375 56 
Q 42.328125 56 49.015625 48.375 
Q 55.71875 40.765625 55.71875 27.296875 
Q 55.71875 13.875 49.015625 6.21875 
Q 42.328125 -1.421875 30.609375 -1.421875 
Q 18.84375 -1.421875 12.171875 6.21875 
Q 5.515625 13.875 5.515625 27.296875 
Q 5.515625 40.765625 12.171875 48.375 
Q 18.84375 56 30.609375 56 
z
" id="DejaVuSans-6f"/>
      <path d="M 18.3125 70.21875 
L 18.3125 54.6875 
L 36.8125 54.6875 
L 36.8125 47.703125 
L 18.3125 47.703125 
L 18.3125 18.015625 
Q 18.3125 11.328125 20.140625 9.421875 
Q 21.96875 7.515625 27.59375 7.515625 
L 36.8125 7.515625 
L 36.8125 0 
L 27.59375 0 
Q 17.1875 0 13.234375 3.875 
Q 9.28125 7.765625 9.28125 18.015625 
L 9.28125 47.703125 
L 2.6875 47.703125 
L 2.6875 54.6875 
L 9.28125 54.6875 
L 9.28125 70.21875 
z
" id="DejaVuSans-74"/>
      <path d="M 34.28125 27.484375 
Q 23.390625 27.484375 19.1875 25 
Q 14.984375 22.515625 14.984375 16.5 
Q 14.984375 11.71875 18.140625 8.90625 
Q 21.296875 6.109375 26.703125 6.109375 
Q 34.1875 6.109375 38.703125 11.40625 
Q 43.21875 16.703125 43.21875 25.484375 
L 43.21875 27.484375 
z
M 52.203125 31.203125 
L 52.203125 0 
L 43.21875 0 
L 43.21875 8.296875 
Q 40.140625 3.328125 35.546875 0.953125 
Q 30.953125 -1.421875 24.3125 -1.421875 
Q 15.921875 -1.421875 10.953125 3.296875 
Q 6 8.015625 6 15.921875 
Q 6 25.140625 12.171875 29.828125 
Q 18.359375 34.515625 30.609375 34.515625 
L 43.21875 34.515625 
L 43.21875 35.40625 
Q 43.21875 41.609375 39.140625 45 
Q 35.0625 48.390625 27.6875 48.390625 
Q 23 48.390625 18.546875 47.265625 
Q 14.109375 46.140625 10.015625 43.890625 
L 10.015625 52.203125 
Q 14.9375 54.109375 19.578125 55.046875 
Q 24.21875 56 28.609375 56 
Q 40.484375 56 46.34375 49.84375 
Q 52.203125 43.703125 52.203125 31.203125 
z
" id="DejaVuSans-61"/>
      <path d="M 28.609375 0 
L 0.78125 72.90625 
L 11.078125 72.90625 
L 34.1875 11.53125 
L 57.328125 72.90625 
L 67.578125 72.90625 
L 39.796875 0 
z
" id="DejaVuSans-56"/>
      <path d="M 9.421875 75.984375 
L 18.40625 75.984375 
L 18.40625 0 
L 9.421875 0 
z
" id="DejaVuSans-6c"/>
     </defs>
     <g transform="translate(180.611719 224.120312)scale(0.1 -0.1)">
      <use xlink:href="#DejaVuSans-4d"/>
      <use x="86.279297" xlink:href="#DejaVuSans-6f"/>
      <use x="147.460938" xlink:href="#DejaVuSans-6e"/>
      <use x="210.839844" xlink:href="#DejaVuSans-65"/>
      <use x="272.363281" xlink:href="#DejaVuSans-74"/>
      <use x="311.572266" xlink:href="#DejaVuSans-61"/>
      <use x="372.851562" xlink:href="#DejaVuSans-72"/>
      <use x="413.964844" xlink:href="#DejaVuSans-79"/>
      <use x="473.144531" xlink:href="#DejaVuSans-56"/>
      <use x="541.443359" xlink:href="#DejaVuSans-61"/>
      <use x="602.722656" xlink:href="#DejaVuSans-6c"/>
      <use x="630.505859" xlink:href="#DejaVuSans-75"/>
      <use x="693.884766" xlink:href="#DejaVuSans-65"/>
     </g>
    </g>
   </g>
   <g id="matplotlib.axis_6">
    <g id="ytick_5">
     <g id="line2d_26">
      <g>
       <use style="stroke:#000000;stroke-width:0.8;" x="40.065625" xlink:href="#m0f1701c82c" y="195.84375"/>
      </g>
     </g>
     <g id="text_27">
      <!-- 0.00 -->
      <g transform="translate(10.8 199.642969)scale(0.1 -0.1)">
       <use xlink:href="#DejaVuSans-30"/>
       <use x="63.623047" xlink:href="#DejaVuSans-2e"/>
       <use x="95.410156" xlink:href="#DejaVuSans-30"/>
       <use x="159.033203" xlink:href="#DejaVuSans-30"/>
      </g>
     </g>
    </g>
    <g id="ytick_6">
     <g id="line2d_27">
      <g>
       <use style="stroke:#000000;stroke-width:0.8;" x="40.065625" xlink:href="#m0f1701c82c" y="178.499311"/>
      </g>
     </g>
     <g id="text_28">
      <!-- 0.25 -->
      <g transform="translate(10.8 182.29853)scale(0.1 -0.1)">
       <use xlink:href="#DejaVuSans-30"/>
       <use x="63.623047" xlink:href="#DejaVuSans-2e"/>
       <use x="95.410156" xlink:href="#DejaVuSans-32"/>
       <use x="159.033203" xlink:href="#DejaVuSans-35"/>
      </g>
     </g>
    </g>
   </g>
   <g id="line2d_28">
    <path clip-path="url(#p6518c5bac1)" d="M 56.276278 195.843314 
L 59.551158 195.841995 
L 62.826037 195.838271 
L 66.100917 195.830409 
L 69.375796 195.818164 
L 72.650676 195.804136 
L 75.925555 195.791511 
L 79.200435 195.779491 
L 82.475314 195.76336 
L 85.750194 195.740908 
L 89.025073 195.716304 
L 92.299953 195.695107 
L 95.574832 195.677681 
L 98.849712 195.660112 
L 102.124591 195.638485 
L 105.399471 195.608492 
L 108.67435 195.563319 
L 111.94923 195.494406 
L 115.224109 195.394555 
L 118.498988 195.266469 
L 121.773868 195.130782 
L 125.048747 195.012506 
L 128.323627 194.908147 
L 131.598506 194.768962 
L 134.873386 194.519272 
L 138.148265 194.092954 
L 141.423145 193.460466 
L 144.698024 192.62278 
L 147.972904 191.585078 
L 151.247783 190.373849 
L 154.522663 189.095359 
L 157.797542 187.907974 
L 161.072422 186.871606 
L 164.347301 185.860846 
L 167.622181 184.684304 
L 170.89706 183.270065 
L 174.17194 181.685139 
L 177.446819 179.993996 
L 180.721699 178.17969 
L 183.996578 176.230948 
L 187.271457 174.250237 
L 190.546337 172.435526 
L 193.821216 170.962817 
L 197.096096 169.893382 
L 200.370975 169.197485 
L 203.645855 168.842883 
L 206.920734 168.789534 
L 210.195614 168.9018 
L 213.470493 169.001312 
L 216.745373 169.077464 
L 220.020252 169.347105 
L 223.295132 170.024537 
L 226.570011 171.082333 
L 229.844891 172.296048 
L 233.11977 173.489727 
L 236.39465 174.675152 
L 239.669529 175.962627 
L 242.944409 177.409401 
L 246.219288 178.981699 
L 249.494168 180.617587 
L 252.769047 182.282304 
L 256.043926 183.959497 
L 259.318806 185.617045 
L 262.593685 187.206183 
L 265.868565 188.676368 
L 269.143444 189.970855 
L 272.418324 191.036414 
L 275.693203 191.865758 
L 278.968083 192.515357 
L 282.242962 193.064815 
L 285.517842 193.563051 
L 288.792721 194.013905 
L 292.067601 194.402239 
L 295.34248 194.722285 
L 298.61736 194.978307 
L 301.892239 195.169705 
L 305.167119 195.290549 
L 308.441998 195.345303 
L 311.716878 195.356766 
L 314.991757 195.354036 
L 318.266637 195.355208 
L 321.541516 195.365462 
L 324.816395 195.389618 
L 328.091275 195.438264 
L 331.366154 195.517081 
L 334.641034 195.61458 
L 337.915913 195.70621 
L 341.190793 195.770756 
L 344.465672 195.801507 
L 347.740552 195.805015 
L 351.015431 195.79406 
L 354.290311 195.78157 
L 357.56519 195.776687 
L 360.84007 195.782802 
L 364.114949 195.797586 
L 367.389829 195.815051 
L 370.664708 195.829351 
L 373.939588 195.838003 
L 377.214467 195.841944 
L 380.489347 195.843306 
" style="fill:none;stroke:#1f77b4;stroke-linecap:square;stroke-width:1.5;"/>
   </g>
   <g id="patch_120">
    <path d="M 40.065625 195.84375 
L 40.065625 165.1 
" style="fill:none;stroke:#000000;stroke-linecap:square;stroke-linejoin:miter;stroke-width:0.8;"/>
   </g>
   <g id="patch_121">
    <path d="M 396.7 195.84375 
L 396.7 165.1 
" style="fill:none;stroke:#000000;stroke-linecap:square;stroke-linejoin:miter;stroke-width:0.8;"/>
   </g>
   <g id="patch_122">
    <path d="M 40.065625 195.84375 
L 396.7 195.84375 
" style="fill:none;stroke:#000000;stroke-linecap:square;stroke-linejoin:miter;stroke-width:0.8;"/>
   </g>
   <g id="patch_123">
    <path d="M 40.065625 165.1 
L 396.7 165.1 
" style="fill:none;stroke:#000000;stroke-linecap:square;stroke-linejoin:miter;stroke-width:0.8;"/>
   </g>
  </g>
 </g>
 <defs>
  <clipPath id="pa951071deb">
   <rect height="30.74375" width="356.634375" x="40.065625" y="14.3"/>
  </clipPath>
  <clipPath id="p7a988fcba7">
   <rect height="30.74375" width="356.634375" x="40.065625" y="89.7"/>
  </clipPath>
  <clipPath id="p6518c5bac1">
   <rect height="30.74375" width="356.634375" x="40.065625" y="165.1"/>
  </clipPath>
 </defs>
</svg>
